<svg width="0" height="0" class="hidden">
  <symbol fill="none" xmlns="http://www.w3.org/2000/svg" viewBox="0 0 140 44" id="logo-light">
    <g clip-path="url(#clip0_191_1609)">
      <path fill-rule="evenodd" clip-rule="evenodd" d="M21.9928 4.89351C24.2857 4.89351 26.4733 5.34481 28.4715 6.16361V12.3539V21.8184C28.4715 25.3669 25.5949 28.2436 22.0465 28.2436C20.5375 28.2436 19.15 27.7235 18.0536 26.8527V32.5405C19.2966 33.0038 20.6421 33.2569 22.0465 33.2569C29.0248 33.2569 33.5146 27.7473 33.5146 21.0594V3.25613C30.1638 1.19127 26.2173 0 21.9928 0C9.84658 0 0 9.84658 0 21.9928C0 28.9293 3.21131 35.1156 8.22825 39.1466V32.1397C6.13243 29.3013 4.89351 25.7918 4.89351 21.9928C4.89351 12.5492 12.5492 4.89351 21.9928 4.89351Z" fill="white"></path>
      <path fill-rule="evenodd" clip-rule="evenodd" d="M22.0619 39.1065C19.7688 39.1065 17.5811 38.6552 15.583 37.8364V31.6461V22.1815C15.583 18.6331 18.4597 15.7563 22.0082 15.7563C23.5171 15.7563 24.9044 16.2765 26.0008 17.1473V11.4594C24.7578 10.9962 23.4125 10.7431 22.0082 10.7431C15.0299 10.7431 10.54 16.2527 10.54 22.9406V40.7438C13.8906 42.8087 17.8371 44 22.0619 44C34.2081 44 44.0546 34.1534 44.0546 22.0072C44.0546 15.0707 40.8433 8.88436 35.8264 4.85339V11.8603C37.9222 14.6987 39.1611 18.2082 39.1611 22.0072C39.1611 31.4508 31.5055 39.1065 22.0619 39.1065Z" fill="#5C8EE6"></path>
      <path d="M71.3035 22.5536C71.3035 22.6595 71.2612 22.7443 71.1976 22.8079C71.1339 22.8716 71.028 22.9138 70.9221 22.9138H68.676C68.5701 22.9138 68.4853 22.8716 68.4216 22.8079C68.3582 22.7443 68.2946 22.6595 68.2735 22.5536L67.2985 18.5275H62.4249L61.45 22.5536C61.4289 22.6595 61.3655 22.7443 61.3019 22.8079C61.2382 22.8716 61.1534 22.9138 61.0475 22.9138H58.8014C58.6955 22.9138 58.5896 22.8716 58.5259 22.8079C58.4622 22.7443 58.42 22.6595 58.42 22.5536C58.42 22.5324 58.42 22.5324 58.4411 22.5113C58.4411 22.4902 58.4411 22.4688 58.4411 22.4476L61.9165 9.16164C62.0435 8.67402 62.2342 8.27152 62.4672 7.99603C62.7004 7.72055 62.9759 7.48762 63.2514 7.33916C63.5269 7.19102 63.8023 7.10623 64.099 7.06367C64.3744 7.02144 64.6288 7 64.8617 7C65.095 7 65.349 7.02144 65.6456 7.06367C65.9211 7.10623 66.218 7.19102 66.4935 7.33916C66.769 7.48762 67.0231 7.72055 67.2563 7.99603C67.4892 8.27152 67.6799 8.67402 67.8073 9.16164L71.2824 22.4476C71.2824 22.4688 71.2823 22.4902 71.3035 22.5113C71.3035 22.5324 71.3035 22.5324 71.3035 22.5536ZM65.2009 9.81852C65.1795 9.69117 65.1372 9.60638 65.095 9.54304C65.0524 9.50048 64.9676 9.47936 64.8617 9.47936C64.7558 9.47936 64.671 9.50048 64.6288 9.54304C64.5862 9.60638 64.544 9.69117 64.5226 9.81852L62.997 16.1118H66.7265L65.2009 9.81852Z" fill="white"></path>
      <path d="M81.7927 22.3417C81.7927 22.4902 81.7712 22.5961 81.7079 22.6594C81.6442 22.7231 81.5172 22.7653 81.3687 22.7868C81.2206 22.829 80.9873 22.8716 80.7119 22.8927C80.4153 22.9349 80.0975 22.9775 79.7584 22.9986C79.4192 23.0197 79.0804 23.0408 78.7201 23.0623C78.3598 23.0834 78.0418 23.0834 77.7663 23.0834C77.0672 23.0834 76.4314 23.0197 75.8382 22.9138C75.2447 22.8079 74.7363 22.575 74.2912 22.2569C73.8462 21.9392 73.5073 21.5153 73.253 20.9432C72.9986 20.3711 72.8716 19.6505 72.8716 18.7393V7.59352C72.8716 7.48761 72.9138 7.38139 72.9986 7.29692C73.0834 7.21213 73.1893 7.16958 73.2955 7.16958H75.3932C75.4991 7.16958 75.605 7.21213 75.6898 7.29692C75.7746 7.38139 75.8171 7.48761 75.8171 7.59352V18.7393C75.8171 19.4387 75.9441 19.926 76.1771 20.1804C76.4103 20.4344 76.8554 20.5618 77.4697 20.5618H81.3687C81.4746 20.5618 81.5805 20.604 81.6653 20.6888C81.7501 20.7736 81.7927 20.8795 81.7927 20.9854V22.3417ZM86.7511 22.4902C86.7511 22.5961 86.7085 22.702 86.6237 22.7868C86.5393 22.8716 86.433 22.9138 86.3271 22.9138H84.2295C84.1236 22.9138 84.0177 22.8716 83.9329 22.7868C83.8481 22.702 83.8055 22.5961 83.8055 22.4902V7.57241C83.8055 7.46618 83.8481 7.36027 83.9329 7.27548C84.0177 7.21214 84.1236 7.16958 84.2295 7.16958H86.3271C86.433 7.16958 86.5393 7.21214 86.6237 7.27548C86.7085 7.36027 86.7511 7.46618 86.7511 7.57241V22.4902ZM101.626 22.5535C101.626 22.6594 101.584 22.7442 101.52 22.8079C101.457 22.8716 101.351 22.9138 101.245 22.9138H98.9988C98.8929 22.9138 98.8081 22.8716 98.7444 22.8079C98.6811 22.7442 98.6174 22.6594 98.5963 22.5535L97.6214 18.5275H92.7478L91.7732 22.5535C91.7517 22.6594 91.6884 22.7442 91.6247 22.8079C91.561 22.8716 91.4766 22.9138 91.3703 22.9138H89.1242C89.0183 22.9138 88.9124 22.8716 88.8487 22.8079C88.7854 22.7442 88.7428 22.6594 88.7428 22.5535C88.7428 22.5324 88.7428 22.5324 88.7639 22.5113C88.7639 22.4902 88.7639 22.4687 88.7639 22.4476L92.2393 9.16164C92.3664 8.67402 92.5571 8.27152 92.7903 7.99603C93.0232 7.72055 93.2987 7.48762 93.5742 7.33916C93.8497 7.19102 94.1252 7.10623 94.4218 7.06367C94.6973 7.02144 94.9516 7 95.1846 7C95.4178 7 95.6719 7.02144 95.9688 7.06367C96.2443 7.10623 96.5409 7.19102 96.8164 7.33916C97.0918 7.48762 97.3459 7.72055 97.5791 7.99603C97.8121 8.27152 98.0031 8.67402 98.1301 9.16164L101.605 22.4476C101.605 22.4687 101.605 22.4902 101.626 22.5113C101.626 22.5324 101.626 22.5324 101.626 22.5535ZM95.5237 9.81851C95.5026 9.69117 95.46 9.60638 95.4178 9.54303C95.3753 9.50047 95.2905 9.47936 95.1846 9.47936C95.0787 9.47936 94.9939 9.50047 94.9516 9.54303C94.9091 9.60638 94.8668 9.69117 94.8457 9.81851L93.3198 16.1118H97.0493L95.5237 9.81851ZM115.527 22.0662C115.527 22.2995 115.442 22.5113 115.294 22.6594C115.124 22.829 114.913 22.9138 114.679 22.9138H112.539C112.285 22.9138 112.052 22.8716 111.84 22.8079C111.607 22.7442 111.416 22.5324 111.247 22.151L106.542 11.8314C106.479 11.7255 106.415 11.6618 106.352 11.6618C106.288 11.6618 106.246 11.7255 106.246 11.8314V22.4902C106.246 22.5961 106.203 22.702 106.14 22.7868C106.055 22.8716 105.949 22.9138 105.843 22.9138H104.042C103.936 22.9138 103.83 22.8716 103.745 22.7868C103.661 22.702 103.618 22.5961 103.618 22.4902V8.01714C103.618 7.78422 103.703 7.57241 103.872 7.40283C104.021 7.25437 104.233 7.16958 104.466 7.16958H106.754C106.988 7.16958 107.157 7.21213 107.305 7.29692C107.433 7.38139 107.56 7.57241 107.687 7.84757L112.624 18.7393C112.666 18.8452 112.73 18.9089 112.794 18.9089C112.857 18.9089 112.899 18.8452 112.899 18.7182V7.57241C112.899 7.29692 113.027 7.16958 113.302 7.16958H115.124C115.4 7.16958 115.527 7.29692 115.527 7.57241V22.0662ZM128.072 22.2569C128.072 22.4054 128.029 22.5113 127.945 22.575C127.86 22.6383 127.754 22.702 127.605 22.7442C127.521 22.7653 127.372 22.8079 127.181 22.829C126.97 22.8716 126.715 22.9138 126.419 22.9564C126.122 22.9775 125.783 23.0197 125.423 23.0408C125.063 23.0623 124.66 23.0834 124.257 23.0834C123.622 23.0834 122.944 22.9986 122.244 22.8079C121.545 22.6172 120.888 22.278 120.316 21.7907C119.723 21.3034 119.256 20.6466 118.854 19.8201C118.472 18.9937 118.282 17.9128 118.282 16.5991V13.4843C118.282 12.1494 118.472 11.0686 118.854 10.221C119.256 9.39457 119.723 8.7377 120.316 8.2504C120.888 7.76311 121.545 7.44506 122.244 7.25436C122.944 7.08478 123.622 7 124.257 7C124.66 7 125.063 7.02144 125.423 7.04255C125.783 7.06367 126.122 7.10623 126.419 7.12734C126.715 7.16958 126.97 7.21213 127.181 7.25436C127.372 7.29692 127.521 7.31804 127.605 7.33916C127.754 7.38139 127.86 7.42394 127.945 7.48761C128.029 7.55096 128.072 7.67831 128.072 7.82645V9.24643C128.072 9.37345 128.05 9.47936 127.987 9.56415C127.923 9.64894 127.796 9.69117 127.648 9.69117H127.605C127.415 9.67005 127.203 9.64894 126.948 9.62782C126.673 9.60638 126.398 9.60638 126.101 9.58526C125.804 9.56415 125.507 9.56415 125.19 9.54303C124.872 9.52191 124.575 9.52192 124.3 9.52192C123.855 9.52192 123.431 9.58527 123.071 9.71262C122.689 9.86075 122.371 10.0726 122.096 10.3695C121.821 10.6872 121.609 11.0897 121.46 11.5984C121.312 12.1069 121.227 12.7426 121.227 13.4843V16.5991C121.227 17.3408 121.312 17.9554 121.46 18.4638C121.609 18.9725 121.821 19.3751 122.096 19.6931C122.371 20.0108 122.689 20.2226 123.071 20.35C123.431 20.4981 123.855 20.5618 124.3 20.5618C124.575 20.5618 124.872 20.5618 125.19 20.5407C125.507 20.5192 125.804 20.5192 126.101 20.4981C126.398 20.477 126.673 20.4559 126.948 20.4344C127.203 20.4133 127.415 20.4133 127.605 20.3922H127.648C127.796 20.3922 127.923 20.4344 127.987 20.5192C128.05 20.604 128.072 20.7099 128.072 20.8373V22.2569ZM140.002 22.3417C140.002 22.4902 139.98 22.5961 139.917 22.6594C139.853 22.7231 139.726 22.7653 139.578 22.7868C139.408 22.8079 139.218 22.8501 139.027 22.8716C138.815 22.9138 138.56 22.9563 138.264 22.9775C137.946 22.9986 137.586 23.0408 137.162 23.0623C136.717 23.0834 136.187 23.0834 135.552 23.0834C134.852 23.0834 134.217 23.0197 133.623 22.9138C133.03 22.8079 132.5 22.575 132.076 22.2569C131.631 21.9392 131.271 21.5153 131.017 20.9432C130.763 20.3711 130.635 19.6505 130.635 18.7393V11.3441C130.635 10.4328 130.763 9.71261 131.017 9.1402C131.271 8.56812 131.631 8.12305 132.076 7.80533C132.5 7.48761 133.03 7.27548 133.623 7.16958C134.217 7.06367 134.852 7 135.552 7C136.187 7 136.717 7 137.162 7.02144C137.586 7.04255 137.946 7.08478 138.264 7.10622C138.56 7.12734 138.815 7.16958 139.027 7.19102C139.218 7.23325 139.408 7.27548 139.578 7.29692C139.726 7.31804 139.853 7.36027 139.917 7.42394C139.98 7.48761 140.002 7.59352 140.002 7.74166V9.09797C140.002 9.20387 139.959 9.30978 139.874 9.39457C139.79 9.47936 139.684 9.52192 139.578 9.52192H135.255C134.64 9.52192 134.196 9.64894 133.962 9.90331C133.708 10.1574 133.581 10.6447 133.581 11.3441V13.6327H139.324C139.429 13.6327 139.535 13.675 139.62 13.7598C139.705 13.8446 139.747 13.9505 139.747 14.0564V15.5819C139.747 15.6882 139.705 15.7941 139.62 15.8789C139.535 15.9636 139.429 16.0059 139.324 16.0059H133.581V18.7393C133.581 19.4387 133.708 19.926 133.962 20.1804C134.196 20.4344 134.64 20.5618 135.255 20.5618H139.578C139.684 20.5618 139.79 20.604 139.874 20.6888C139.959 20.7736 140.002 20.8795 140.002 20.9854V22.3417Z" fill="white"></path>
      <path d="M65.8759 29.9868C65.8759 30.5816 65.7677 31.0816 65.565 31.4867C65.3489 31.8921 65.0653 32.2167 64.7002 32.4597C64.349 32.7167 63.9303 32.8921 63.4706 32.9866C62.9979 33.0948 62.4979 33.149 61.9707 33.149C61.7953 33.149 61.5925 33.1354 61.3492 33.1218C61.1195 33.1084 60.9168 33.1084 60.768 33.0948V36.6215C60.768 36.6891 60.7411 36.7567 60.7005 36.8109C60.6465 36.8648 60.579 36.8918 60.5114 36.8918H59.1603C59.0927 36.8918 59.0251 36.8648 58.9709 36.8109C58.917 36.7567 58.89 36.6891 58.89 36.6215V27.3249C58.89 27.1897 58.9306 27.0952 59.0115 27.0276C59.0791 26.9737 59.1873 26.9331 59.3224 26.9198C59.6736 26.8655 60.079 26.8249 60.5384 26.7846C60.998 26.7573 61.4844 26.744 61.9843 26.744C62.4979 26.744 62.9979 26.7979 63.4706 26.8925C63.9303 26.987 64.349 27.1628 64.7002 27.4061C65.0653 27.6494 65.3489 27.9736 65.565 28.3654C65.7677 28.7709 65.8759 29.2708 65.8759 29.8653V29.9868ZM63.9978 29.8517C63.9978 29.2845 63.8354 28.879 63.4979 28.6494C63.16 28.406 62.6464 28.2845 61.9707 28.2845C61.9031 28.2845 61.8086 28.2845 61.7004 28.2845C61.5789 28.2978 61.4707 28.2978 61.3492 28.2978C61.2277 28.3115 61.1195 28.3115 61.025 28.3115C60.9168 28.3248 60.8356 28.3248 60.768 28.3385V31.5679C60.8223 31.5679 60.9032 31.5679 61.025 31.5679C61.1332 31.5816 61.2547 31.5816 61.3762 31.5816C61.498 31.5949 61.6059 31.5949 61.7277 31.5949C61.8355 31.6085 61.9168 31.6085 61.9707 31.6085C62.7003 31.6085 63.2276 31.4734 63.5382 31.2031C63.8491 30.9328 63.9978 30.5274 63.9978 29.9735V29.8517ZM74.6456 36.7297C74.6456 36.8379 74.5917 36.8918 74.4835 36.8918H72.8348C72.7672 36.8918 72.7133 36.8648 72.6727 36.8109C72.6324 36.7567 72.6051 36.6891 72.5648 36.6215L70.6189 33.0272H70.4298C70.2541 33.0272 70.0377 33.0139 69.808 33.0003C69.5784 32.9866 69.3756 32.9866 69.2272 32.9733V36.6215C69.2272 36.6891 69.1999 36.7567 69.1596 36.8109C69.1054 36.8648 69.0378 36.8918 68.9702 36.8918H67.6191C67.5515 36.8918 67.484 36.8648 67.43 36.8109C67.3758 36.7567 67.3488 36.6891 67.3488 36.6215V27.3249C67.3488 27.1897 67.3894 27.0952 67.4703 27.0276C67.5379 26.9737 67.6461 26.9331 67.7812 26.9198C68.1324 26.8655 68.5378 26.8249 68.9975 26.7846C69.4569 26.7573 69.9432 26.744 70.4431 26.744C70.9568 26.744 71.4567 26.7979 71.9297 26.8925C72.3891 27.0007 72.8078 27.1764 73.1593 27.4061C73.5242 27.6358 73.8078 27.9467 74.0241 28.3385C74.2268 28.7302 74.3347 29.2169 74.3347 29.7977V29.9192C74.3347 30.6356 74.1726 31.2301 73.8347 31.6761C73.5105 32.1218 73.0645 32.4597 72.4973 32.676L74.6186 36.6215C74.6319 36.6488 74.6456 36.6891 74.6456 36.7297ZM72.4567 29.7977C72.4567 29.2845 72.2945 28.9196 71.9567 28.6896C71.6188 28.46 71.1052 28.3521 70.4298 28.3521C70.3623 28.3521 70.2674 28.3521 70.1595 28.3521C70.0377 28.3654 69.9299 28.3654 69.808 28.3654C69.6865 28.3791 69.5784 28.3791 69.4838 28.3791C69.3756 28.3924 69.2948 28.3924 69.2272 28.406V31.4464C69.2811 31.4464 69.3623 31.4464 69.4838 31.4464C69.592 31.4597 69.7135 31.4598 69.835 31.4598C69.9568 31.4734 70.0647 31.4734 70.1865 31.4734C70.2947 31.4867 70.3756 31.4867 70.4298 31.4867C71.1322 31.4867 71.6458 31.3789 71.97 31.1492C72.2945 30.9195 72.4567 30.5141 72.4567 29.9192V29.7977Z" fill="#5C8EE6"></path>
      <path d="M83.3208 32.7842C83.3208 33.5272 83.2259 34.176 83.0368 34.7029C82.8341 35.2298 82.5775 35.6622 82.226 36.0001C81.8884 36.3379 81.483 36.5946 81.01 36.7567C80.5507 36.9188 80.037 37 79.4831 37C78.9156 37 78.402 36.9188 77.9426 36.7567C77.4696 36.5946 77.0642 36.3379 76.7267 36.0001C76.3888 35.6622 76.1185 35.2298 75.9291 34.7029C75.7264 34.176 75.6319 33.5272 75.6319 32.7842V30.9598C75.6319 30.2168 75.7264 29.5817 75.9291 29.0411C76.1185 28.5142 76.3888 28.0682 76.7267 27.7303C77.0642 27.3925 77.4696 27.1495 77.9426 26.987C78.402 26.8249 78.9156 26.744 79.4831 26.744C80.037 26.744 80.5507 26.8249 81.01 26.987C81.483 27.1495 81.8884 27.3925 82.226 27.7303C82.5775 28.0682 82.8341 28.5142 83.0368 29.0411C83.2259 29.5817 83.3208 30.2168 83.3208 30.9598V32.7842ZM81.4424 30.9598C81.4424 30.0544 81.2803 29.406 80.9561 28.9869C80.6452 28.5818 80.1452 28.3791 79.4831 28.3791C78.8074 28.3791 78.3075 28.5818 77.9966 28.9869C77.6724 29.406 77.5102 30.0544 77.5102 30.9598V32.7842C77.5102 33.6893 77.6724 34.3381 77.9966 34.7435C78.3075 35.1623 78.8074 35.365 79.4831 35.365C80.1452 35.365 80.6452 35.1623 80.9561 34.7435C81.2803 34.3381 81.4424 33.6893 81.4424 32.7842V30.9598ZM92.3604 32.8651C92.3604 34.2029 91.9956 35.2298 91.2523 35.9325C90.5227 36.6488 89.4688 37 88.1177 37C87.8607 37 87.6177 37 87.3475 36.9864C87.0772 36.9731 86.8205 36.9594 86.5772 36.9461C86.3202 36.9324 86.1042 36.9055 85.9015 36.8918C85.6988 36.8785 85.5367 36.8512 85.4421 36.8379C85.3206 36.8243 85.2394 36.784 85.1855 36.7164C85.1179 36.6488 85.0906 36.554 85.0906 36.4188V27.3249C85.0906 27.1897 85.1179 27.0952 85.1855 27.0276C85.2394 26.9601 85.3206 26.9198 85.4421 26.9061C85.5367 26.8925 85.6988 26.8655 85.9015 26.8522C86.1042 26.8386 86.3202 26.8116 86.5772 26.798C86.8205 26.7846 87.0772 26.771 87.3475 26.7573C87.6177 26.744 87.8607 26.744 88.1177 26.744C89.4688 26.744 90.5227 27.0952 91.2523 27.7979C91.9956 28.5142 92.3604 29.5411 92.3604 30.8789V32.8651ZM90.4824 30.8789C90.4824 30.3789 90.4281 29.9599 90.3066 29.6356C90.1851 29.2978 90.0094 29.0411 89.8067 28.8384C89.5903 28.6494 89.3337 28.5142 89.0501 28.433C88.7528 28.3654 88.4419 28.3248 88.1041 28.3248C87.8474 28.3248 87.6311 28.3248 87.4553 28.3385C87.2799 28.3521 87.1178 28.3521 86.969 28.3654V35.3919C87.1178 35.4056 87.2799 35.4056 87.4553 35.4189C87.6311 35.4325 87.8474 35.4325 88.1041 35.4325C88.4419 35.4325 88.7528 35.3919 89.0501 35.3111C89.3337 35.2435 89.5903 35.1083 89.8067 34.9056C90.0094 34.7165 90.1851 34.4596 90.3066 34.1217C90.4281 33.7975 90.4824 33.3787 90.4824 32.8788V30.8789ZM101.468 33.176C101.468 33.892 101.373 34.5002 101.198 34.9865C101.009 35.4732 100.752 35.8649 100.427 36.1622C100.09 36.4594 99.6978 36.6758 99.2518 36.7973C98.7924 36.9325 98.2925 37 97.7519 37C97.2116 37 96.7117 36.9325 96.2656 36.7973C95.8063 36.6758 95.4145 36.4594 95.0899 36.1622C94.7521 35.8649 94.4954 35.4732 94.3197 34.9865C94.1306 34.5002 94.0361 33.892 94.0361 33.176V27.1088C94.0361 27.0413 94.063 26.9737 94.1173 26.9198C94.1712 26.8792 94.2388 26.8522 94.3064 26.8522H95.6442C95.7117 26.8522 95.7793 26.8792 95.8332 26.9198C95.8872 26.9737 95.9144 27.0413 95.9144 27.1088V33.1894C95.9144 33.5678 95.9414 33.9057 95.9953 34.1893C96.0496 34.4732 96.1441 34.7165 96.2926 34.9056C96.4277 35.0947 96.6168 35.2298 96.8468 35.3244C97.0765 35.4189 97.3871 35.4595 97.7519 35.4595C98.117 35.4595 98.4143 35.4189 98.6573 35.3244C98.887 35.2298 99.0764 35.0947 99.2248 34.9056C99.36 34.7165 99.4545 34.4732 99.5087 34.1893C99.5627 33.9057 99.5896 33.5678 99.5896 33.1894V27.1088C99.5896 27.0413 99.6169 26.9737 99.6709 26.9198C99.7248 26.8792 99.7924 26.8522 99.8599 26.8522H101.198C101.265 26.8522 101.333 26.8792 101.387 26.9198C101.441 26.9737 101.468 27.0413 101.468 27.1088V33.176ZM109.4 36.4731C109.4 36.5676 109.373 36.6352 109.319 36.6758C109.265 36.7164 109.197 36.7567 109.103 36.784C109.048 36.7973 108.954 36.8243 108.832 36.8379C108.697 36.8649 108.535 36.8918 108.346 36.9188C108.157 36.9325 107.941 36.9594 107.711 36.9731C107.481 36.9864 107.224 37 106.968 37C106.562 37 106.13 36.9461 105.684 36.8243C105.238 36.7028 104.819 36.4864 104.454 36.1758C104.076 35.8649 103.779 35.4462 103.522 34.9189C103.279 34.392 103.157 33.703 103.157 32.8651V30.8789C103.157 30.0274 103.279 29.3384 103.522 28.7978C103.779 28.2709 104.076 27.8521 104.454 27.5412C104.819 27.2303 105.238 27.0276 105.684 26.9061C106.13 26.798 106.562 26.744 106.968 26.744C107.224 26.744 107.481 26.7573 107.711 26.771C107.941 26.7846 108.157 26.8116 108.346 26.8249C108.535 26.8522 108.697 26.8792 108.832 26.9061C108.954 26.9331 109.048 26.9467 109.103 26.9601C109.197 26.987 109.265 27.0143 109.319 27.0546C109.373 27.0952 109.4 27.1764 109.4 27.271V28.1764C109.4 28.2572 109.386 28.3248 109.346 28.3791C109.305 28.433 109.224 28.46 109.13 28.46H109.103C108.981 28.4466 108.846 28.433 108.684 28.4194C108.508 28.406 108.332 28.406 108.143 28.3924C107.954 28.3791 107.765 28.3791 107.562 28.3654C107.359 28.3521 107.17 28.3521 106.995 28.3521C106.711 28.3521 106.441 28.3924 106.211 28.4736C105.968 28.5681 105.765 28.7033 105.589 28.8924C105.413 29.0951 105.278 29.352 105.184 29.6763C105.089 30.0005 105.035 30.4059 105.035 30.8789V32.8651C105.035 33.3381 105.089 33.7299 105.184 34.0541C105.278 34.3787 105.413 34.6353 105.589 34.838C105.765 35.0408 105.968 35.1759 106.211 35.2568C106.441 35.3513 106.711 35.3919 106.995 35.3919C107.17 35.3919 107.359 35.3919 107.562 35.3786C107.765 35.365 107.954 35.365 108.143 35.3513C108.332 35.338 108.508 35.3244 108.684 35.3111C108.846 35.2974 108.981 35.2974 109.103 35.2838H109.13C109.224 35.2838 109.305 35.311 109.346 35.365C109.386 35.4189 109.4 35.4865 109.4 35.5677V36.4731ZM117.508 28.1764C117.508 28.2439 117.48 28.3115 117.426 28.3521C117.372 28.3924 117.305 28.4194 117.237 28.4194H114.873V36.6216C114.873 36.6891 114.845 36.7567 114.791 36.811C114.737 36.8649 114.67 36.8918 114.602 36.8918H113.264C113.197 36.8918 113.129 36.8649 113.075 36.811C113.021 36.7567 112.994 36.6891 112.994 36.6216V28.4194H110.63C110.562 28.4194 110.494 28.3924 110.44 28.3521C110.386 28.3115 110.359 28.2439 110.359 28.1764V27.1088C110.359 27.0413 110.386 26.9737 110.44 26.9198C110.494 26.8792 110.562 26.8522 110.63 26.8522H117.237C117.305 26.8522 117.372 26.8792 117.426 26.9198C117.48 26.9737 117.508 27.0413 117.508 27.1088V28.1764ZM120.737 36.6216C120.737 36.6891 120.71 36.7567 120.656 36.811C120.602 36.8649 120.534 36.8918 120.467 36.8918H119.129C119.061 36.8918 118.994 36.8649 118.94 36.811C118.886 36.7567 118.859 36.6891 118.859 36.6216V27.1088C118.859 27.0413 118.886 26.9737 118.94 26.9198C118.994 26.8792 119.061 26.8522 119.129 26.8522H120.467C120.534 26.8522 120.602 26.8792 120.656 26.9198C120.71 26.9737 120.737 27.0413 120.737 27.1088V36.6216ZM130.182 32.7842C130.182 33.5272 130.088 34.176 129.898 34.7029C129.696 35.2298 129.439 35.6622 129.088 36.0001C128.75 36.3379 128.344 36.5946 127.871 36.7567C127.412 36.9188 126.899 37 126.344 37C125.777 37 125.264 36.9188 124.804 36.7567C124.331 36.5946 123.926 36.3379 123.588 36.0001C123.25 35.6622 122.98 35.2298 122.791 34.7029C122.588 34.176 122.494 33.5272 122.494 32.7842V30.9598C122.494 30.2168 122.588 29.5817 122.791 29.0411C122.98 28.5142 123.25 28.0682 123.588 27.7303C123.926 27.3925 124.331 27.1495 124.804 26.987C125.264 26.8249 125.777 26.744 126.344 26.744C126.899 26.744 127.412 26.8249 127.871 26.987C128.344 27.1495 128.75 27.3925 129.088 27.7303C129.439 28.0682 129.696 28.5142 129.898 29.0411C130.088 29.5817 130.182 30.2168 130.182 30.9598V32.7842ZM128.304 30.9598C128.304 30.0544 128.142 29.406 127.817 28.9869C127.507 28.5818 127.007 28.3791 126.344 28.3791C125.669 28.3791 125.169 28.5818 124.858 28.9869C124.534 29.406 124.372 30.0544 124.372 30.9598V32.7842C124.372 33.6893 124.534 34.3381 124.858 34.7435C125.169 35.1623 125.669 35.365 126.344 35.365C127.007 35.365 127.507 35.1623 127.817 34.7435C128.142 34.3381 128.304 33.6893 128.304 32.7842V30.9598ZM139.546 36.3516C139.546 36.5001 139.492 36.6352 139.398 36.7297C139.29 36.8379 139.155 36.8918 139.006 36.8918H137.641C137.479 36.8918 137.33 36.8649 137.195 36.8243C137.046 36.784 136.925 36.6488 136.817 36.4055L133.817 29.8247C133.776 29.7571 133.736 29.7169 133.696 29.7169C133.655 29.7169 133.628 29.7571 133.628 29.8247V36.6216C133.628 36.6891 133.601 36.7567 133.56 36.811C133.506 36.8649 133.439 36.8918 133.371 36.8918H132.223C132.155 36.8918 132.087 36.8649 132.033 36.811C131.979 36.7567 131.952 36.6891 131.952 36.6216V27.3925C131.952 27.244 132.006 27.1088 132.114 27.0007C132.209 26.9061 132.344 26.8522 132.493 26.8522H133.952C134.101 26.8522 134.209 26.8792 134.303 26.9331C134.385 26.987 134.465 27.1088 134.547 27.2846L137.695 34.2299C137.722 34.2975 137.763 34.3381 137.803 34.3381C137.844 34.3381 137.871 34.2975 137.871 34.2166V27.1088C137.871 26.9331 137.952 26.8522 138.128 26.8522H139.29C139.465 26.8522 139.546 26.9331 139.546 27.1088V36.3516Z" fill="#5C8EE6"></path>
    </g>
      <defs>
      <clipPath id="clip0_191_1609">
        <rect width="140" height="44" fill="white"></rect>
      </clipPath>
      </defs>
  </symbol>
  <symbol fill="none" xmlns="http://www.w3.org/2000/svg" xmlns:xlink="http://www.w3.org/1999/xlink" viewBox="0 0 140 44" id="logo">
    <desc>Created with Pixso.</desc>
    <defs>
      <clipPath id="clip191_1668">
        <rect id="logo" width="140.000000" height="44.000000" fill="white" fill-opacity="0"></rect>
      </clipPath>
    </defs>
    <rect id="logo" width="140.000000" height="44.000000" fill="#FFFFFF" fill-opacity="0"></rect>
    <g clip-path="url(#clip191_1668)">
      <path id="Vector" d="M21.99 4.89C24.28 4.89 26.47 5.34 28.47 6.16L28.47 12.35L28.47 21.81C28.47 25.36 25.59 28.24 22.04 28.24C20.53 28.24 19.15 27.72 18.05 26.85L18.05 32.54C19.29 33 20.64 33.25 22.04 33.25C29.02 33.25 33.51 27.74 33.51 21.05L33.51 3.25C30.16 1.19 26.21 0 21.99 0C9.84 0 0 9.84 0 21.99C0 28.92 3.21 35.11 8.22 39.14L8.22 32.13C6.13 29.3 4.89 25.79 4.89 21.99C4.89 12.54 12.54 4.89 21.99 4.89Z" fill="#292D33" fill-opacity="1.000000" fill-rule="evenodd"></path>
      <path id="Vector" d="M22.06 39.1C19.76 39.1 17.58 38.65 15.58 37.83L15.58 31.64L15.58 22.18C15.58 18.63 18.45 15.75 22 15.75C23.51 15.75 24.9 16.27 26 17.14L26 11.45C24.75 10.99 23.41 10.74 22 10.74C15.02 10.74 10.54 16.25 10.54 22.94L10.54 40.74C13.89 42.8 17.83 44 22.06 44C34.2 44 44.05 34.15 44.05 22C44.05 15.07 40.84 8.88 35.82 4.85L35.82 11.86C37.92 14.69 39.16 18.2 39.16 22C39.16 31.45 31.5 39.1 22.06 39.1Z" fill="#5C8EE6" fill-opacity="1.000000" fill-rule="evenodd"></path>
      <path id="Vector" d="M71.19 22.8C71.26 22.74 71.3 22.65 71.3 22.55L71.3 22.51C71.28 22.49 71.28 22.46 71.28 22.44L67.8 9.16C67.67 8.67 67.48 8.27 67.25 7.99C67.02 7.72 66.76 7.48 66.49 7.33C66.21 7.19 65.92 7.1 65.64 7.06C65.34 7.02 65.09 7 64.86 7C64.62 7 64.37 7.02 64.09 7.06C63.8 7.1 63.52 7.19 63.25 7.33C62.97 7.48 62.7 7.72 62.46 7.99C62.23 8.27 62.04 8.67 61.91 9.16L58.44 22.44L58.44 22.51C58.42 22.53 58.42 22.53 58.42 22.55C58.42 22.65 58.46 22.74 58.52 22.8C58.58 22.87 58.69 22.91 58.8 22.91L61.04 22.91C61.15 22.91 61.23 22.87 61.3 22.8C61.36 22.74 61.42 22.65 61.45 22.55L62.42 18.52L67.29 18.52L68.27 22.55C68.29 22.65 68.35 22.74 68.42 22.8C68.48 22.87 68.57 22.91 68.67 22.91L70.92 22.91C71.02 22.91 71.13 22.87 71.19 22.8ZM101.52 22.8C101.58 22.74 101.62 22.65 101.62 22.55L101.62 22.51C101.6 22.49 101.6 22.46 101.6 22.44L98.13 9.16C98 8.67 97.81 8.27 97.57 7.99C97.34 7.72 97.09 7.48 96.81 7.33C96.54 7.19 96.24 7.1 95.96 7.06C95.67 7.02 95.41 7 95.18 7C94.95 7 94.69 7.02 94.42 7.06C94.12 7.1 93.84 7.19 93.57 7.33C93.29 7.48 93.02 7.72 92.79 7.99C92.55 8.27 92.36 8.67 92.23 9.16L88.76 22.44L88.76 22.51C88.74 22.53 88.74 22.53 88.74 22.55C88.74 22.65 88.78 22.74 88.84 22.8C88.91 22.87 89.01 22.91 89.12 22.91L91.37 22.91C91.47 22.91 91.56 22.87 91.62 22.8C91.68 22.74 91.75 22.65 91.77 22.55L92.74 18.52L97.62 18.52L98.59 22.55C98.61 22.65 98.68 22.74 98.74 22.8C98.8 22.87 98.89 22.91 98.99 22.91L101.24 22.91C101.35 22.91 101.45 22.87 101.52 22.8ZM127.94 22.57C128.02 22.51 128.07 22.4 128.07 22.25L128.07 20.83C128.07 20.7 128.05 20.6 127.98 20.51C127.92 20.43 127.79 20.39 127.64 20.39L127.6 20.39C127.41 20.41 127.2 20.41 126.94 20.43C126.67 20.45 126.39 20.47 126.1 20.49C125.8 20.51 125.5 20.51 125.19 20.54C124.87 20.56 124.57 20.56 124.3 20.56C123.85 20.56 123.43 20.49 123.07 20.35C122.68 20.22 122.37 20.01 122.09 19.69C121.82 19.37 121.6 18.97 121.46 18.46C121.31 17.95 121.22 17.34 121.22 16.59L121.22 13.48C121.22 12.74 121.31 12.1 121.46 11.59C121.6 11.08 121.82 10.68 122.09 10.36C122.37 10.07 122.68 9.86 123.07 9.71C123.43 9.58 123.85 9.52 124.3 9.52C124.57 9.52 124.87 9.52 125.19 9.54C125.5 9.56 125.8 9.56 126.1 9.58C126.39 9.6 126.67 9.6 126.94 9.62C127.2 9.64 127.41 9.67 127.6 9.69L127.64 9.69C127.79 9.69 127.92 9.64 127.98 9.56C128.05 9.47 128.07 9.37 128.07 9.24L128.07 7.82C128.07 7.67 128.02 7.55 127.94 7.48C127.86 7.42 127.75 7.38 127.6 7.33C127.52 7.31 127.37 7.29 127.18 7.25C126.97 7.21 126.71 7.16 126.41 7.12C126.12 7.1 125.78 7.06 125.42 7.04C125.06 7.02 124.66 7 124.25 7C123.62 7 122.94 7.08 122.24 7.25C121.54 7.44 120.88 7.76 120.31 8.25C119.72 8.73 119.25 9.39 118.85 10.22C118.47 11.06 118.28 12.14 118.28 13.48L118.28 16.59C118.28 17.91 118.47 18.99 118.85 19.82C119.25 20.64 119.72 21.3 120.31 21.79C120.88 22.27 121.54 22.61 122.24 22.8C122.94 22.99 123.62 23.08 124.25 23.08C124.66 23.08 125.06 23.06 125.42 23.04C125.78 23.01 126.12 22.97 126.41 22.95C126.71 22.91 126.97 22.87 127.18 22.82C127.37 22.8 127.52 22.76 127.6 22.74C127.75 22.7 127.86 22.63 127.94 22.57ZM139.91 22.65C139.98 22.59 140 22.49 140 22.34L140 20.98C140 20.87 139.95 20.77 139.87 20.68C139.78 20.6 139.68 20.56 139.57 20.56L135.25 20.56C134.64 20.56 134.19 20.43 133.96 20.18C133.7 19.92 133.58 19.43 133.58 18.73L133.58 16L139.32 16C139.42 16 139.53 15.96 139.62 15.87C139.7 15.79 139.74 15.68 139.74 15.58L139.74 14.05C139.74 13.95 139.7 13.84 139.62 13.75C139.53 13.67 139.42 13.63 139.32 13.63L133.58 13.63L133.58 11.34C133.58 10.64 133.7 10.15 133.96 9.9C134.19 9.64 134.64 9.52 135.25 9.52L139.57 9.52C139.68 9.52 139.78 9.47 139.87 9.39C139.95 9.3 140 9.2 140 9.09L140 7.74C140 7.59 139.98 7.48 139.91 7.42C139.85 7.36 139.72 7.31 139.57 7.29C139.4 7.27 139.21 7.23 139.02 7.19C138.81 7.16 138.56 7.12 138.26 7.1C137.94 7.08 137.58 7.04 137.16 7.02C136.71 7 136.18 7 135.55 7L135.55 7C134.85 7 134.21 7.06 133.62 7.16C133.03 7.27 132.5 7.48 132.07 7.8C131.63 8.12 131.27 8.56 131.01 9.14C130.76 9.71 130.63 10.43 130.63 11.34L130.63 18.73C130.63 19.65 130.76 20.37 131.01 20.94C131.27 21.51 131.63 21.93 132.07 22.25C132.5 22.57 133.03 22.8 133.62 22.91C134.21 23.01 134.85 23.08 135.55 23.08L135.55 23.08C136.18 23.08 136.71 23.08 137.16 23.06C137.58 23.04 137.94 22.99 138.26 22.97C138.56 22.95 138.81 22.91 139.02 22.87C139.21 22.85 139.4 22.8 139.57 22.78C139.72 22.76 139.85 22.72 139.91 22.65ZM81.7 22.65C81.77 22.59 81.79 22.49 81.79 22.34L81.79 20.98C81.79 20.87 81.75 20.77 81.66 20.68C81.58 20.6 81.47 20.56 81.36 20.56L77.46 20.56C76.85 20.56 76.41 20.43 76.17 20.18C75.94 19.92 75.81 19.43 75.81 18.73L75.81 7.59C75.81 7.48 75.77 7.38 75.68 7.29C75.6 7.21 75.49 7.16 75.39 7.16L73.29 7.16C73.18 7.16 73.08 7.21 72.99 7.29C72.91 7.38 72.87 7.48 72.87 7.59L72.87 18.73C72.87 19.65 72.99 20.37 73.25 20.94C73.5 21.51 73.84 21.93 74.29 22.25C74.73 22.57 75.24 22.8 75.83 22.91C76.43 23.01 77.06 23.08 77.76 23.08L77.76 23.08C78.04 23.08 78.35 23.08 78.72 23.06C79.08 23.04 79.41 23.01 79.75 22.99C80.09 22.97 80.41 22.93 80.71 22.89C80.98 22.87 81.22 22.82 81.36 22.78C81.51 22.76 81.64 22.72 81.7 22.65ZM86.62 22.78C86.7 22.7 86.75 22.59 86.75 22.49L86.75 7.57C86.75 7.46 86.7 7.36 86.62 7.27C86.53 7.21 86.43 7.16 86.32 7.16L84.22 7.16C84.12 7.16 84.01 7.21 83.93 7.27C83.84 7.36 83.8 7.46 83.8 7.57L83.8 22.49C83.8 22.59 83.84 22.7 83.93 22.78C84.01 22.87 84.12 22.91 84.22 22.91L86.32 22.91C86.43 22.91 86.53 22.87 86.62 22.78ZM115.29 22.65C115.44 22.51 115.52 22.29 115.52 22.06L115.52 7.57C115.52 7.29 115.4 7.16 115.12 7.16L113.3 7.16C113.02 7.16 112.89 7.29 112.89 7.57L112.89 18.71C112.89 18.84 112.85 18.9 112.79 18.9C112.73 18.9 112.66 18.84 112.62 18.73L107.68 7.84C107.56 7.57 107.43 7.38 107.3 7.29C107.15 7.21 106.98 7.16 106.75 7.16L104.46 7.16C104.23 7.16 104.02 7.25 103.87 7.4C103.7 7.57 103.61 7.78 103.61 8.01L103.61 22.49C103.61 22.59 103.66 22.7 103.74 22.78C103.83 22.87 103.93 22.91 104.04 22.91L105.84 22.91C105.94 22.91 106.05 22.87 106.14 22.78C106.2 22.7 106.24 22.59 106.24 22.49L106.24 11.83C106.24 11.72 106.28 11.66 106.35 11.66C106.41 11.66 106.47 11.72 106.54 11.83L111.24 22.15C111.41 22.53 111.6 22.74 111.84 22.8C112.05 22.87 112.28 22.91 112.53 22.91L114.67 22.91C114.91 22.91 115.12 22.82 115.29 22.65ZM95.41 9.54C95.46 9.6 95.5 9.69 95.52 9.81L97.04 16.11L93.31 16.11L94.84 9.81C94.86 9.69 94.9 9.6 94.95 9.54C94.99 9.5 95.07 9.47 95.18 9.47C95.29 9.47 95.37 9.5 95.41 9.54ZM65.09 9.54C65.13 9.6 65.17 9.69 65.2 9.81L66.72 16.11L62.99 16.11L64.52 9.81C64.54 9.69 64.58 9.6 64.62 9.54C64.67 9.5 64.75 9.47 64.86 9.47C64.96 9.47 65.05 9.5 65.09 9.54Z" fill="#292D33" fill-opacity="1.000000" fill-rule="evenodd"></path>
      <path id="Vector" d="M65.56 31.48C65.76 31.08 65.87 30.58 65.87 29.98L65.87 29.86C65.87 29.27 65.76 28.77 65.56 28.36C65.34 27.97 65.06 27.64 64.7 27.4C64.34 27.16 63.93 26.98 63.47 26.89C62.99 26.79 62.49 26.74 61.98 26.74C61.48 26.74 60.99 26.75 60.53 26.78C60.07 26.82 59.67 26.86 59.32 26.91C59.18 26.93 59.07 26.97 59.01 27.02C58.93 27.09 58.89 27.18 58.89 27.32L58.89 36.62C58.89 36.68 58.91 36.75 58.97 36.81C59.02 36.86 59.09 36.89 59.16 36.89L60.51 36.89C60.57 36.89 60.64 36.86 60.7 36.81C60.74 36.75 60.76 36.68 60.76 36.62L60.76 33.09C60.91 33.1 61.11 33.1 61.34 33.12C61.59 33.13 61.79 33.14 61.97 33.14C62.49 33.14 62.99 33.09 63.47 32.98C63.93 32.89 64.34 32.71 64.7 32.45C65.06 32.21 65.34 31.89 65.56 31.48ZM74.48 36.89C74.59 36.89 74.64 36.83 74.64 36.72C74.64 36.68 74.63 36.64 74.61 36.62L72.49 32.67C73.06 32.45 73.51 32.12 73.83 31.67C74.17 31.23 74.33 30.63 74.33 29.91L74.33 29.79C74.33 29.21 74.22 28.73 74.02 28.33C73.8 27.94 73.52 27.63 73.15 27.4C72.8 27.17 72.38 27 71.92 26.89C71.45 26.79 70.95 26.74 70.44 26.74C69.94 26.74 69.45 26.75 68.99 26.78C68.53 26.82 68.13 26.86 67.78 26.91C67.64 26.93 67.53 26.97 67.47 27.02C67.38 27.09 67.34 27.18 67.34 27.32L67.34 36.62C67.34 36.68 67.37 36.75 67.43 36.81C67.48 36.86 67.55 36.89 67.61 36.89L68.97 36.89C69.03 36.89 69.1 36.86 69.15 36.81C69.19 36.75 69.22 36.68 69.22 36.62L69.22 32.97C69.37 32.98 69.57 32.98 69.8 33C70.03 33.01 70.25 33.02 70.42 33.02L70.61 33.02L72.56 36.62C72.6 36.68 72.63 36.75 72.67 36.81C72.71 36.86 72.76 36.89 72.83 36.89L74.48 36.89ZM83.03 34.7C83.22 34.17 83.32 33.52 83.32 32.78L83.32 30.95C83.32 30.21 83.22 29.58 83.03 29.04C82.83 28.51 82.57 28.06 82.22 27.73C81.88 27.39 81.48 27.14 81.01 26.98C80.55 26.82 80.03 26.74 79.48 26.74C78.91 26.74 78.4 26.82 77.94 26.98C77.46 27.14 77.06 27.39 76.72 27.73C76.38 28.06 76.11 28.51 75.92 29.04C75.72 29.58 75.63 30.21 75.63 30.95L75.63 32.78C75.63 33.52 75.72 34.17 75.92 34.7C76.11 35.22 76.38 35.66 76.72 36C77.06 36.33 77.46 36.59 77.94 36.75C78.4 36.91 78.91 37 79.48 37C80.03 37 80.55 36.91 81.01 36.75C81.48 36.59 81.88 36.33 82.22 36C82.57 35.66 82.83 35.22 83.03 34.7ZM91.25 35.93C91.99 35.22 92.36 34.2 92.36 32.86L92.36 30.87C92.36 29.54 91.99 28.51 91.25 27.79C90.52 27.09 89.46 26.74 88.11 26.74C87.86 26.74 87.61 26.74 87.34 26.75C87.07 26.77 86.82 26.78 86.57 26.79C86.32 26.81 86.1 26.83 85.9 26.85C85.69 26.86 85.53 26.89 85.44 26.9C85.32 26.91 85.23 26.96 85.18 27.02C85.11 27.09 85.09 27.18 85.09 27.32L85.09 36.41C85.09 36.55 85.11 36.64 85.18 36.71C85.23 36.78 85.32 36.82 85.44 36.83C85.53 36.85 85.69 36.87 85.9 36.89C86.1 36.9 86.32 36.93 86.57 36.94C86.82 36.95 87.07 36.97 87.34 36.98C87.61 37 87.86 37 88.11 37C89.46 37 90.52 36.64 91.25 35.93ZM109.31 36.67C109.37 36.63 109.4 36.56 109.4 36.47L109.4 35.56C109.4 35.48 109.38 35.41 109.34 35.36C109.3 35.31 109.22 35.28 109.13 35.28L109.1 35.28C108.98 35.29 108.84 35.29 108.68 35.31C108.5 35.32 108.33 35.33 108.14 35.35C107.95 35.36 107.76 35.36 107.56 35.37C107.35 35.39 107.17 35.39 106.99 35.39C106.71 35.39 106.44 35.35 106.21 35.25C105.96 35.17 105.76 35.04 105.58 34.83C105.41 34.63 105.27 34.37 105.18 34.05C105.08 33.72 105.03 33.33 105.03 32.86L105.03 30.87C105.03 30.4 105.08 30 105.18 29.67C105.27 29.35 105.41 29.09 105.58 28.89C105.76 28.7 105.96 28.56 106.21 28.47C106.44 28.39 106.71 28.35 106.99 28.35C107.17 28.35 107.35 28.35 107.56 28.36C107.76 28.37 107.95 28.37 108.14 28.39C108.33 28.4 108.5 28.4 108.68 28.41C108.84 28.43 108.98 28.44 109.1 28.46L109.13 28.46C109.22 28.46 109.3 28.43 109.34 28.37C109.38 28.32 109.4 28.25 109.4 28.17L109.4 27.27C109.4 27.17 109.37 27.09 109.31 27.05C109.26 27.01 109.19 26.98 109.1 26.96C109.04 26.94 108.95 26.93 108.83 26.9C108.69 26.87 108.53 26.85 108.34 26.82C108.15 26.81 107.94 26.78 107.71 26.77C107.48 26.75 107.22 26.74 106.96 26.74C106.56 26.74 106.13 26.79 105.68 26.9C105.23 27.02 104.81 27.23 104.45 27.54C104.07 27.85 103.77 28.27 103.52 28.79C103.27 29.33 103.15 30.02 103.15 30.87L103.15 32.86C103.15 33.7 103.27 34.39 103.52 34.91C103.77 35.44 104.07 35.86 104.45 36.17C104.81 36.48 105.23 36.7 105.68 36.82C106.13 36.94 106.56 37 106.96 37C107.22 37 107.48 36.98 107.71 36.97C107.94 36.95 108.15 36.93 108.34 36.91C108.53 36.89 108.69 36.86 108.83 36.83C108.95 36.82 109.04 36.79 109.1 36.78C109.19 36.75 109.26 36.71 109.31 36.67ZM129.89 34.7C130.08 34.17 130.18 33.52 130.18 32.78L130.18 30.95C130.18 30.21 130.08 29.58 129.89 29.04C129.69 28.51 129.43 28.06 129.08 27.73C128.75 27.39 128.34 27.14 127.87 26.98C127.41 26.82 126.89 26.74 126.34 26.74C125.77 26.74 125.26 26.82 124.8 26.98C124.33 27.14 123.92 27.39 123.58 27.73C123.25 28.06 122.98 28.51 122.79 29.04C122.58 29.58 122.49 30.21 122.49 30.95L122.49 32.78C122.49 33.52 122.58 34.17 122.79 34.7C122.98 35.22 123.25 35.66 123.58 36C123.92 36.33 124.33 36.59 124.8 36.75C125.26 36.91 125.77 37 126.34 37C126.89 37 127.41 36.91 127.87 36.75C128.34 36.59 128.75 36.33 129.08 36C129.43 35.66 129.69 35.22 129.89 34.7ZM101.19 34.98C101.37 34.5 101.46 33.89 101.46 33.17L101.46 27.1C101.46 27.04 101.44 26.97 101.38 26.91C101.33 26.87 101.26 26.85 101.19 26.85L99.85 26.85C99.79 26.85 99.72 26.87 99.67 26.91C99.61 26.97 99.58 27.04 99.58 27.1L99.58 33.18C99.58 33.56 99.56 33.9 99.5 34.18C99.45 34.47 99.36 34.71 99.22 34.9C99.07 35.09 98.88 35.22 98.65 35.32C98.41 35.41 98.11 35.45 97.75 35.45C97.38 35.45 97.07 35.41 96.84 35.32C96.61 35.22 96.42 35.09 96.29 34.9C96.14 34.71 96.04 34.47 95.99 34.18C95.94 33.9 95.91 33.56 95.91 33.18L95.91 27.1C95.91 27.04 95.88 26.97 95.83 26.91C95.77 26.87 95.71 26.85 95.64 26.85L94.3 26.85C94.23 26.85 94.17 26.87 94.11 26.91C94.06 26.97 94.03 27.04 94.03 27.1L94.03 33.17C94.03 33.89 94.13 34.5 94.31 34.98C94.49 35.47 94.75 35.86 95.08 36.16C95.41 36.45 95.8 36.67 96.26 36.79C96.71 36.93 97.21 37 97.75 37C98.29 37 98.79 36.93 99.25 36.79C99.69 36.67 100.09 36.45 100.42 36.16C100.75 35.86 101 35.47 101.19 34.98ZM117.42 28.35C117.48 28.31 117.5 28.24 117.5 28.17L117.5 27.1C117.5 27.04 117.48 26.97 117.42 26.91C117.37 26.87 117.3 26.85 117.23 26.85L110.63 26.85C110.56 26.85 110.49 26.87 110.44 26.91C110.38 26.97 110.35 27.04 110.35 27.1L110.35 28.17C110.35 28.24 110.38 28.31 110.44 28.35C110.49 28.39 110.56 28.41 110.63 28.41L112.99 28.41L112.99 36.62C112.99 36.68 113.02 36.75 113.07 36.81C113.12 36.86 113.19 36.89 113.26 36.89L114.6 36.89C114.67 36.89 114.73 36.86 114.79 36.81C114.84 36.75 114.87 36.68 114.87 36.62L114.87 28.41L117.23 28.41C117.3 28.41 117.37 28.39 117.42 28.35ZM120.65 36.81C120.71 36.75 120.73 36.68 120.73 36.62L120.73 27.1C120.73 27.04 120.71 26.97 120.65 26.91C120.6 26.87 120.53 26.85 120.46 26.85L119.12 26.85C119.06 26.85 118.99 26.87 118.94 26.91C118.88 26.97 118.85 27.04 118.85 27.1L118.85 36.62C118.85 36.68 118.88 36.75 118.94 36.81C118.99 36.86 119.06 36.89 119.12 36.89L120.46 36.89C120.53 36.89 120.6 36.86 120.65 36.81ZM139.39 36.72C139.49 36.63 139.54 36.5 139.54 36.35L139.54 27.1C139.54 26.93 139.46 26.85 139.28 26.85L138.12 26.85C137.95 26.85 137.87 26.93 137.87 27.1L137.87 34.21C137.87 34.29 137.84 34.33 137.8 34.33C137.76 34.33 137.72 34.29 137.69 34.22L134.54 27.28C134.46 27.1 134.38 26.98 134.3 26.93C134.2 26.87 134.1 26.85 133.95 26.85L132.49 26.85C132.34 26.85 132.2 26.9 132.11 27C132 27.1 131.95 27.24 131.95 27.39L131.95 36.62C131.95 36.68 131.97 36.75 132.03 36.81C132.08 36.86 132.15 36.89 132.22 36.89L133.37 36.89C133.43 36.89 133.5 36.86 133.56 36.81C133.6 36.75 133.62 36.68 133.62 36.62L133.62 29.82C133.62 29.75 133.65 29.71 133.69 29.71C133.73 29.71 133.77 29.75 133.81 29.82L136.81 36.4C136.92 36.64 137.04 36.78 137.19 36.82C137.33 36.86 137.47 36.89 137.64 36.89L139 36.89C139.15 36.89 139.28 36.83 139.39 36.72ZM63.49 28.64C63.83 28.87 63.99 29.28 63.99 29.85L63.99 29.97C63.99 30.52 63.84 30.93 63.53 31.2C63.22 31.47 62.7 31.6 61.97 31.6C61.91 31.6 61.83 31.6 61.72 31.59L61.72 31.59C61.6 31.59 61.49 31.59 61.37 31.58L61.37 31.58C61.25 31.58 61.13 31.58 61.02 31.56L60.76 31.56L60.76 28.33C60.83 28.32 60.91 28.32 61.02 28.31L61.02 28.31C61.11 28.31 61.22 28.31 61.34 28.29L61.34 28.29C61.47 28.29 61.57 28.29 61.7 28.28L61.97 28.28C62.64 28.28 63.16 28.4 63.49 28.64ZM90.3 29.63C90.42 29.95 90.48 30.37 90.48 30.87L90.48 32.87C90.48 33.37 90.42 33.79 90.3 34.12C90.18 34.45 90 34.71 89.8 34.9C89.59 35.1 89.33 35.24 89.05 35.31C88.75 35.39 88.44 35.43 88.1 35.43C87.84 35.43 87.63 35.43 87.45 35.41C87.27 35.4 87.11 35.4 86.96 35.39L86.96 28.36C87.11 28.35 87.27 28.35 87.45 28.33C87.63 28.32 87.84 28.32 88.1 28.32L88.1 28.32C88.44 28.32 88.75 28.36 89.05 28.43C89.33 28.51 89.59 28.64 89.8 28.83C90 29.04 90.18 29.29 90.3 29.63ZM71.95 28.68C72.29 28.91 72.45 29.28 72.45 29.79L72.45 29.91C72.45 30.51 72.29 30.91 71.97 31.14C71.64 31.37 71.13 31.48 70.42 31.48C70.37 31.48 70.29 31.48 70.18 31.47L70.18 31.47C70.06 31.47 69.95 31.47 69.83 31.45C69.71 31.45 69.59 31.45 69.48 31.44L69.22 31.44L69.22 28.4C69.29 28.39 69.37 28.39 69.48 28.37L69.48 28.37C69.57 28.37 69.68 28.37 69.8 28.36C69.92 28.36 70.03 28.36 70.15 28.35L70.42 28.35C71.1 28.35 71.61 28.46 71.95 28.68ZM80.95 28.98C81.28 29.4 81.44 30.05 81.44 30.95L81.44 32.78C81.44 33.68 81.28 34.33 80.95 34.74C80.64 35.16 80.14 35.36 79.48 35.36C78.8 35.36 78.3 35.16 77.99 34.74C77.67 34.33 77.51 33.68 77.51 32.78L77.51 30.95C77.51 30.05 77.67 29.4 77.99 28.98C78.3 28.58 78.8 28.37 79.48 28.37C80.14 28.37 80.64 28.58 80.95 28.98ZM127.81 28.98C128.14 29.4 128.3 30.05 128.3 30.95L128.3 32.78C128.3 33.68 128.14 34.33 127.81 34.74C127.5 35.16 127 35.36 126.34 35.36C125.66 35.36 125.16 35.16 124.85 34.74C124.53 34.33 124.37 33.68 124.37 32.78L124.37 30.95C124.37 30.05 124.53 29.4 124.85 28.98C125.16 28.58 125.66 28.37 126.34 28.37C127 28.37 127.5 28.58 127.81 28.98Z" fill="#5C8EE6" fill-opacity="1.000000" fill-rule="evenodd"></path>
    </g>
  </symbol>
  <symbol fill="none" xmlns="http://www.w3.org/2000/svg" xmlns:xlink="http://www.w3.org/1999/xlink" viewBox="0 0 36 36" id="car">
    <desc>Created with Pixso.</desc>
    <defs></defs>
    <path id="Vector" d="M1.75 15.5L20.12 15.5C21.05 15.5 21.87 14.73 21.87 13.75L21.87 1.5C21.87 0.57 21.05 -0.25 20.12 -0.25L1.75 -0.25C0.76 -0.25 0 0.57 0 1.5L0 13.75C0 14.73 0.76 15.5 1.75 15.5ZM1.75 1.5L20.12 1.5L20.12 13.75L1.75 13.75L1.75 1.5ZM33.96 9.26L30.73 6.03C30.07 5.38 29.2 5.05 28.27 5.05L24.5 5.05C24 5.05 23.62 5.43 23.62 5.92L23.62 17.3L12.46 17.3C11.81 16.75 10.99 16.42 10.06 16.42C8.8 16.42 7.71 16.97 7 17.9C6.23 16.97 5.14 16.37 3.93 16.37C1.75 16.37 0 18.17 0 20.31C0 22.5 1.75 24.25 3.93 24.25C5.14 24.25 6.23 23.7 7 22.77C7.71 23.7 8.8 24.25 10.06 24.25C12.19 24.25 14 22.5 14 20.31C14 19.87 13.89 19.43 13.72 19L24.55 19C24.39 19.76 24.44 20.53 24.71 21.35C25.15 22.71 26.35 23.81 27.78 24.14C30.62 24.85 33.25 22.66 33.25 19.87C33.25 19.6 33.19 19.32 33.14 19L34.12 19C34.56 19 35 18.61 35 18.12L35 11.72C35 10.79 34.61 9.92 33.96 9.26ZM3.93 22.5C2.67 22.5 1.75 21.57 1.75 20.31C1.75 19.1 2.67 18.12 3.93 18.12C5.14 18.12 6.12 19.1 6.12 20.31C6.12 21.57 5.14 22.5 3.93 22.5ZM10.06 22.5C8.8 22.5 7.87 21.57 7.87 20.31C7.87 19.1 8.8 18.12 10.06 18.12C11.26 18.12 12.25 19.1 12.25 20.31C12.25 21.57 11.26 22.5 10.06 22.5ZM25.37 6.75L28.27 6.75C28.76 6.75 29.2 6.96 29.53 7.29L32.48 10.25L25.37 10.25L25.37 6.75ZM28.87 22.5C27.39 22.5 26.25 21.35 26.25 19.87C26.25 18.45 27.39 17.25 28.87 17.25C30.29 17.25 31.5 18.45 31.5 19.87C31.5 21.35 30.29 22.5 28.87 22.5ZM33.25 17.25L32.32 17.25C31.55 16.21 30.29 15.5 28.87 15.5C27.39 15.5 26.19 16.21 25.37 17.25L25.37 12L33.25 12L33.25 17.25ZM5.68 12L6.56 12C6.78 12 7 11.83 7 11.56L7 3.68C7 3.46 6.78 3.25 6.56 3.25L5.68 3.25C5.41 3.25 5.25 3.46 5.25 3.68L5.25 11.56C5.25 11.83 5.41 12 5.68 12ZM10.93 12L11.81 12C12.03 12 12.25 11.83 12.25 11.56L12.25 3.68C12.25 3.46 12.03 3.25 11.81 3.25L10.93 3.25C10.66 3.25 10.5 3.46 10.5 3.68L10.5 11.56C10.5 11.83 10.66 12 10.93 12ZM16.18 12L17.06 12C17.28 12 17.5 11.83 17.5 11.56L17.5 3.68C17.5 3.46 17.28 3.25 17.06 3.25L16.18 3.25C15.91 3.25 15.75 3.46 15.75 3.68L15.75 11.56C15.75 11.83 15.91 12 16.18 12Z" fill="#5C8EE6" fill-opacity="1.000000" fill-rule="evenodd"></path>
  </symbol>
  <symbol fill="none" xmlns="http://www.w3.org/2000/svg" xmlns:xlink="http://www.w3.org/1999/xlink" viewBox="0 0 36 36" id="page">
    <desc>Created with Pixso.</desc>
    <defs></defs>
    <path id="Vector" d="M27.22 5.35L22.68 0.82C22.19 0.32 21.47 0 20.82 0L9.66 0C8.19 0.05 7.04 1.2 7.04 2.67L7.04 9.07C6.71 9.07 6.38 9.02 5.67 8.8C5.62 8.8 5.51 8.8 5.4 8.8C5.12 8.8 4.85 8.91 4.69 9.07C3.7 10.11 3.76 10.06 2.39 10.44C2.01 10.55 1.73 10.82 1.62 11.21C1.29 12.57 1.29 12.52 0.31 13.5C0.04 13.78 -0.07 14.21 0.04 14.6C0.42 15.91 0.42 15.91 0.04 17.22C-0.07 17.6 0.04 18.04 0.31 18.32C1.29 19.3 1.29 19.3 1.62 20.61C1.73 21 2.01 21.27 2.39 21.38C2.5 21.43 2.55 21.43 2.66 21.43L2.66 27.12C2.66 27.45 2.77 27.72 3.04 27.89C3.32 28.05 3.65 28.05 3.92 27.94L7.04 26.35L10.1 27.94C10.26 28 10.37 28 10.54 28L25.41 28C26.83 28 28.04 26.85 28.04 25.42L28.04 7.21C28.04 6.56 27.71 5.85 27.22 5.35ZM21.04 1.8C21.15 1.85 21.31 1.91 21.42 2.02L26.01 6.61C26.12 6.72 26.18 6.89 26.23 7.05L21.04 7.05L21.04 1.8ZM1.84 17.33C2.12 16.13 2.12 15.69 1.84 14.49C2.66 13.61 2.88 13.23 3.21 12.03C4.41 11.7 4.74 11.48 5.62 10.6C6.16 10.77 6.54 10.82 7.04 10.82C7.47 10.82 7.86 10.77 8.4 10.6C9.22 11.48 9.61 11.7 10.81 12.03C11.14 13.23 11.3 13.56 12.18 14.49C11.85 15.69 11.85 16.13 12.18 17.33C11.36 18.21 11.14 18.59 10.81 19.79C9.99 20.01 9.5 20.17 8.73 20.83C8.19 20.61 7.64 20.5 7.04 20.5C6.38 20.5 5.83 20.61 5.29 20.89C4.52 20.23 4.03 20.01 3.21 19.79C2.88 18.59 2.72 18.26 1.84 17.33ZM7.42 24.6C7.15 24.5 6.87 24.5 6.6 24.6L4.41 25.75L4.41 22.42C4.41 22.47 4.41 22.47 4.41 22.47C4.63 22.69 4.9 22.75 5.12 22.75C5.34 22.75 5.51 22.69 5.72 22.64C6.11 22.36 6.54 22.25 7.04 22.25C7.47 22.25 7.91 22.36 8.29 22.58C8.51 22.75 8.68 22.75 8.9 22.75C9.17 22.75 9.39 22.69 9.61 22.47C9.61 22.47 9.61 22.47 9.66 22.42L9.66 25.75L7.42 24.6ZM26.29 25.42C26.29 25.86 25.85 26.3 25.41 26.3L11.41 26.3L11.41 21.43C11.47 21.43 11.52 21.43 11.63 21.38C12.01 21.27 12.29 21 12.4 20.61C12.72 19.25 12.72 19.3 13.71 18.32C13.98 18.04 14.09 17.6 13.98 17.22C13.6 15.91 13.6 15.91 13.98 14.6C14.09 14.21 13.98 13.78 13.71 13.5C12.72 12.52 12.72 12.52 12.4 11.21C12.29 10.82 12.01 10.55 11.63 10.44C10.32 10.06 10.32 10.11 9.33 9.07C9.17 8.91 8.95 8.85 8.79 8.8L8.79 2.67C8.79 2.18 9.17 1.75 9.66 1.75L19.29 1.75L19.29 7.49C19.29 8.2 19.83 8.75 20.6 8.75L26.29 8.75L26.29 25.42Z" fill="#5C8EE6" fill-opacity="1.000000" fill-rule="evenodd"></path>
  </symbol>
  <symbol fill="none" xmlns="http://www.w3.org/2000/svg" xmlns:xlink="http://www.w3.org/1999/xlink" viewBox="0 0 36 36" id="people">
    <desc>Created with Pixso.</desc>
    <defs></defs>
    <path id="Vector" d="M17.11 19.25C15.53 19.25 14.82 20.12 12.25 20.12C9.62 20.12 8.91 19.25 7.32 19.25C3.28 19.25 0 22.58 0 26.63C0 27.39 0.6 28 1.36 28L23.07 28C23.84 28 24.5 27.39 24.5 26.63C24.5 22.58 21.16 19.25 17.11 19.25ZM1.75 26.25C1.91 23.35 4.37 21.05 7.32 21C8.42 21 9.46 21.87 12.25 21.87C15.03 21.87 16.02 21 17.11 21C20.07 21.05 22.53 23.35 22.69 26.25L1.75 26.25ZM4.81 8.75L5.46 8.75C5.3 9.35 5.25 9.89 5.25 10.5C5.25 14.38 8.36 17.5 12.25 17.5C16.07 17.5 19.25 14.38 19.25 10.5C19.19 9.89 19.14 9.35 18.97 8.75L19.68 8.75C19.9 8.75 20.12 8.58 20.12 8.31L20.12 7.43C20.12 7.21 19.9 7 19.68 7L19.25 7C19.25 4.21 17.33 1.85 14.71 1.14C14.49 0.49 13.83 0.05 13.12 0L11.37 0C10.6 0.05 9.95 0.49 9.73 1.14C7.16 1.85 5.25 4.21 5.25 7L4.81 7C4.53 7 4.37 7.21 4.37 7.43L4.37 8.31C4.37 8.58 4.53 8.75 4.81 8.75ZM14.87 3C16.4 3.71 17.44 5.25 17.5 7L14.87 7L14.87 3ZM11.37 1.75L13.12 1.75L13.12 7L11.37 7L11.37 1.75ZM7 7C7 5.25 8.03 3.71 9.62 3L9.62 7L7 7ZM7.32 8.75L17.17 8.75C17.33 9.29 17.44 9.89 17.5 10.5C17.5 13.39 15.09 15.75 12.25 15.75C9.35 15.75 7 13.39 7 10.5C7 9.89 7.1 9.29 7.32 8.75Z" fill="#5C8EE6" fill-opacity="1.000000" fill-rule="evenodd"></path>
  </symbol>
  <symbol fill="none" xmlns="http://www.w3.org/2000/svg" xmlns:xlink="http://www.w3.org/1999/xlink" viewBox="0 0 36 36" id="score">
    <desc>Created with Pixso.</desc>
    <defs></defs>
    <path id="Vector" d="M9.62 7.87C8.64 7.87 7.87 8.69 7.87 9.62C7.87 10.6 8.64 11.37 9.62 11.37C10.55 11.37 11.37 10.6 11.37 9.62C11.37 8.69 10.55 7.87 9.62 7.87ZM15.75 0C7.05 0 0 7.05 0 15.75C0 18.64 0.76 21.38 2.13 23.67C2.4 24.22 3 24.55 3.6 24.55L27.83 24.55C28.43 24.55 29.03 24.22 29.36 23.67C30.67 21.38 31.5 18.64 31.5 15.75C31.5 7.05 24.44 0 15.75 0ZM15.75 21.87C14.49 21.87 13.56 20.94 13.56 19.68C13.56 18.48 14.49 17.5 15.75 17.5C16.95 17.5 17.93 18.48 17.93 19.68C17.93 20.94 16.95 21.87 15.75 21.87ZM27.34 21.87L20.01 21.87C20.34 21.21 20.56 20.5 20.56 19.68C20.56 19.35 20.5 19.03 20.39 18.7L25.42 16.57C26.08 16.24 26.41 15.47 26.14 14.82C25.81 14.16 25.04 13.83 24.39 14.1L19.19 16.35C18.32 15.47 17.06 14.87 15.75 14.87C13.07 14.87 10.93 17.06 10.93 19.68C10.93 20.5 11.1 21.21 11.48 21.87L4.1 21.87C3.11 20.01 2.62 17.93 2.62 15.75C2.62 8.53 8.47 2.62 15.75 2.62C22.96 2.62 28.87 8.53 28.87 15.75C28.87 17.93 28.32 20.01 27.34 21.87ZM7 14C6.01 14 5.25 14.82 5.25 15.75C5.25 16.73 6.01 17.5 7 17.5C7.92 17.5 8.75 16.73 8.75 15.75C8.75 14.82 7.92 14 7 14ZM15.75 5.25C14.76 5.25 14 6.07 14 7C14 7.98 14.76 8.75 15.75 8.75C16.67 8.75 17.5 7.98 17.5 7C17.5 6.07 16.67 5.25 15.75 5.25ZM21.87 7.87C20.89 7.87 20.12 8.69 20.12 9.62C20.12 10.6 20.89 11.37 21.87 11.37C22.8 11.37 23.62 10.6 23.62 9.62C23.62 8.69 22.8 7.87 21.87 7.87Z" fill="#5C8EE6" fill-opacity="1.000000" fill-rule="nonzero"></path>
  </symbol>
  <symbol fill="none" xmlns="http://www.w3.org/2000/svg" xmlns:xlink="http://www.w3.org/1999/xlink" viewBox="0 0 36 36" id="time">
    <desc>Created with Pixso.</desc>
    <defs></defs>
    <path id="Vector" d="M20.12 1.75L20.34 1.75C20.67 1.75 21 1.47 21 1.09L21 0.65C21 0.32 20.67 0 20.34 0L0.65 0C0.27 0 0 0.32 0 0.65L0 1.09C0 1.47 0.27 1.75 0.65 1.75L0.87 1.75C0.87 6.78 3.28 12.35 7.92 14C3.22 15.69 0.87 21.27 0.87 26.25L0.65 26.25C0.27 26.25 0 26.57 0 26.9L0 27.34C0 27.72 0.27 28 0.65 28L20.34 28C20.67 28 21 27.72 21 27.34L21 26.9C21 26.57 20.67 26.25 20.34 26.25L20.12 26.25C20.12 21.27 17.66 15.69 13.01 14C17.71 12.35 20.12 6.78 20.12 1.75ZM2.62 1.75L18.37 1.75C18.37 7.82 14.82 12.68 10.5 12.68C6.12 12.68 2.62 7.82 2.62 1.75ZM18.37 26.25L2.62 26.25C2.62 20.23 6.12 15.31 10.5 15.31C14.82 15.31 18.37 20.23 18.37 26.25ZM14.71 8.03C15.03 7.65 14.71 7 14.16 7L6.78 7C6.23 7 5.9 7.65 6.23 8.03C6.34 8.2 6.45 8.36 6.61 8.53C6.72 8.69 6.89 8.75 7.1 8.75L13.83 8.75C14.05 8.75 14.21 8.69 14.32 8.53C14.49 8.36 14.6 8.2 14.71 8.03ZM5.35 22.75C5.03 22.75 4.81 22.96 4.7 23.24C4.7 23.4 4.64 23.57 4.59 23.73C4.53 24.11 4.81 24.5 5.25 24.5L15.69 24.5C16.13 24.5 16.4 24.11 16.35 23.73C16.29 23.57 16.24 23.4 16.24 23.24C16.13 22.96 15.91 22.75 15.58 22.75L5.35 22.75Z" fill="#5C8EE6" fill-opacity="1.000000" fill-rule="nonzero"></path>
  </symbol>
  <symbol xmlns="http://www.w3.org/2000/svg" viewBox="0 0 24 24" id="phone">
    <path d="M19.9688 16.0822L19.2188 19.2384C19.125 19.7072 18.75 20.0197 18.2812 20.0197C10.4062 19.9884 4 13.5822 4 5.70718C4 5.23843 4.28125 4.86343 4.75 4.76968L7.90625 4.01968C8.34375 3.92593 8.8125 4.17593 9 4.58218L10.4688 7.98843C10.625 8.39468 10.5312 8.86343 10.1875 9.11343L8.5 10.4884C9.5625 12.6447 11.3125 14.3947 13.5 15.4572L14.875 13.7697C15.125 13.4572 15.5938 13.3322 16 13.4884L19.4062 14.9572C19.8125 15.1759 20.0625 15.6447 19.9688 16.0822Z" ></path>
  </symbol>
   <symbol fill="none" xmlns="http://www.w3.org/2000/svg" viewBox="0 0 24 24" id="mail">
    <path d="M4.3125 9.96875C5.03125 10.5312 5.9375 11.2188 9.125 13.5312C9.75 14 10.9062 15.0312 12 15.0312C13.125 15.0312 14.25 14 14.9062 13.5312C18.0938 11.2188 19 10.5312 19.7188 9.96875C19.8438 9.875 20 9.96875 20 10.125V16.5C20 17.3438 19.3438 18 18.5 18H5.5C4.6875 18 4 17.3438 4 16.5V10.125C4 9.96875 4.1875 9.875 4.3125 9.96875ZM12 14C11.2812 14.0312 10.25 13.0938 9.71875 12.7188C5.5625 9.71875 5.25 9.4375 4.3125 8.6875C4.125 8.5625 4 8.34375 4 8.09375V7.5C4 6.6875 4.6875 6 5.5 6H18.5C19.3438 6 20 6.6875 20 7.5V8.09375C20 8.34375 19.9062 8.5625 19.7188 8.6875C18.7812 9.4375 18.4688 9.71875 14.3125 12.7188C13.7812 13.0938 12.75 14.0312 12 14Z" fill="#5C8EE6"></path>
  </symbol>
  <symbol fill="none" xmlns="http://www.w3.org/2000/svg" viewBox="0 0 24 24" id="map">
    <path d="M12.625 19.6875C12.3438 20.125 11.6875 20.125 11.4062 19.6875C6.84375 13.125 6 12.4375 6 10C6 6.6875 8.6875 4 12 4C15.3438 4 18 6.6875 18 10C18 12.4375 17.1875 13.125 12.625 19.6875ZM12 12.5C13.4062 12.5 14.5 11.4062 14.5 10C14.5 8.625 13.4062 7.5 12 7.5C10.625 7.5 9.5 8.625 9.5 10C9.5 11.4062 10.625 12.5 12 12.5Z" fill="#5C8EE6"></path>
  </symbol>
  <symbol viewBox="0 0 36 24" fill="none" xmlns="http://www.w3.org/2000/svg" xmlns:xlink="http://www.w3.org/1999/xlink" id="arrow-left">
    <path id="Vector" d="M10.16 4.68L10.86 5.39L4.41 11.84L33 11.84L32.99 12.84L4.42 12.84L10.86 19.29L10.16 20L3 12.84L2.99 12.84L2.99 12.83L2.5 12.34L10.16 4.68Z" fill="#FFFFFF" fill-opacity="1.000000" fill-rule="evenodd"/>
    </symbol>
    <symbol viewBox="0 0 36 24" fill="none" xmlns="http://www.w3.org/2000/svg" xmlns:xlink="http://www.w3.org/1999/xlink" id="arrow-right">
    <path id="Vector" d="M25.83 4.68L25.13 5.39L31.58 11.84L3 11.84L3 12.84L31.57 12.84L25.13 19.29L25.83 20L32.99 12.84L33 12.84L33 12.83L33.49 12.34L25.83 4.68Z" fill="#FFFFFF" fill-opacity="1.000000" fill-rule="evenodd"/>
  </symbol>
  <symbol viewBox="0 0 180 180" xmlns="http://www.w3.org/2000/svg" xmlns:xlink="http://www.w3.org/1999/xlink" id="AGTECH">
    <desc>
        Created with Pixso.
    </desc>
    <defs>
      <clipPath id="clip305_3741">
        <rect id="AGTECH" fill="white" fill-opacity="0"/>
      </clipPath>
    </defs>
    <rect id="AGTECH" fill="#FFFFFF" fill-opacity="0"/>
    <g clip-path="url(#clip305_3741)">
		<path id="Vector" d="M118.02 56.41L104.45 56.41L101 50.87L94.32 40.52L78.48 65.12L71.19 76.55L65.25 85.83L57.95 97.2L51.95 106.47L44.66 117.9L31.14 117.9L38.44 106.47L44.37 97.2L51.67 85.83L57.61 76.55L87.53 30L101.11 30L107.73 40.35L114.52 50.87L118.02 56.41ZM157.51 117.9L57.22 117.9L65.3 106.47L71.24 97.2L78.54 85.83L84.54 76.55L91.83 65.12L123.68 65.12L130.98 76.55L98.06 76.55L92.12 85.83L84.82 97.2L78.88 106.47L136.63 106.47L130.69 97.2L96.58 97.2L104.17 85.83L136.92 85.83L144.27 97.2L150.21 106.47L157.51 117.9ZM39.85 150.08L38.21 147.14L29.22 147.14L31.42 143.01L36.06 143.01L32.78 136.85L25.71 150.08L20 150.08L29.84 132.27C30.35 131.3 31.14 130.85 32.16 130.85L33.34 130.85C34.31 130.85 35.1 131.3 35.61 132.27L45.45 150.08L39.85 150.08ZM54.9 150.08C53.43 150.08 52.07 149.86 50.82 149.41C49.58 148.95 48.5 148.27 47.6 147.42C46.69 146.63 45.96 145.62 45.45 144.43C44.94 143.24 44.71 141.94 44.71 140.47C44.71 139.05 44.94 137.7 45.45 136.57C45.96 135.38 46.69 134.36 47.6 133.51C48.5 132.66 49.58 131.98 50.82 131.53C52.07 131.08 53.43 130.85 54.9 130.85L65.19 130.85L65.19 135.77L54.56 135.77C53.88 135.77 53.26 135.89 52.69 136.11C52.07 136.34 51.62 136.68 51.16 137.07C50.77 137.53 50.43 137.98 50.2 138.6C49.97 139.17 49.86 139.79 49.86 140.47C49.86 141.15 49.97 141.77 50.2 142.39C50.43 142.96 50.77 143.41 51.16 143.81C51.62 144.26 52.07 144.54 52.69 144.77C53.26 144.99 53.88 145.11 54.56 145.11L60.27 145.11L60.27 142.5L54.05 142.5L54.05 138.38L65.19 138.38L65.19 150.08L54.9 150.08ZM82.5 150.08L82.5 135.77L75.37 135.77L75.37 130.85L94.72 130.85L94.72 135.77L87.65 135.77L87.65 150.08L82.5 150.08ZM96.98 150.08L96.98 130.85L115.42 130.85L115.42 135.77L102.13 135.77L102.13 145.11L115.48 145.11L115.48 150.08L96.98 150.08ZM128.09 150.08C126.57 150.08 125.21 149.86 123.96 149.41C122.72 148.95 121.64 148.27 120.8 147.42C119.89 146.63 119.16 145.62 118.65 144.43C118.14 143.24 117.85 141.94 117.85 140.47C117.85 139.05 118.14 137.7 118.65 136.57C119.16 135.38 119.89 134.36 120.8 133.51C121.64 132.66 122.72 131.98 123.96 131.53C125.21 131.08 126.57 130.85 128.09 130.85L137.48 130.85L137.48 135.77L127.7 135.77C127.02 135.77 126.4 135.89 125.83 136.11C125.26 136.34 124.76 136.68 124.36 137.07C123.96 137.53 123.62 137.98 123.4 138.6C123.17 139.17 123.06 139.79 123.06 140.47C123.06 141.15 123.17 141.77 123.4 142.39C123.62 142.96 123.96 143.41 124.36 143.81C124.76 144.26 125.26 144.54 125.83 144.77C126.4 144.99 127.02 145.11 127.7 145.11L137.48 145.11L137.48 150.08L128.09 150.08ZM140.37 150.08L140.37 130.85L145.57 130.85L145.57 150.08L140.37 150.08ZM154.85 150.08L154.85 142.62L147.32 142.62L147.32 137.92L154.85 137.92L154.85 130.85L160 130.85L160 150.08L154.85 150.08ZM103.88 142.5L103.88 138.38L115.25 138.38L115.25 142.5L103.88 142.5Z" fill-opacity="1.000000" fill-rule="evenodd"/>
	  </g>
  </symbol>
  <symbol viewBox="0 0 180 180" xmlns="http://www.w3.org/2000/svg" id="AP">
    <path d="M55.1146 141.929C55.1146 142.074 55.0664 142.18 54.9796 142.257C54.8929 142.343 54.7772 142.382 54.6327 142.382H51.828C51.7027 142.382 51.5967 142.334 51.51 142.247C51.4232 142.16 51.3558 142.054 51.3269 141.929L50.1028 136.898H44.0117L42.7877 141.929C42.7588 142.054 42.6913 142.16 42.6046 142.247C42.5178 142.334 42.4118 142.382 42.2865 142.382H39.4819C39.3373 142.382 39.2217 142.343 39.1349 142.257C39.0482 142.18 39 142.074 39 141.929C39 141.91 39.0096 141.89 39.0096 141.881C39.0193 141.861 39.0289 141.833 39.0289 141.794L43.3756 125.178C43.5298 124.561 43.7611 124.08 44.0599 123.723C44.3587 123.376 44.6864 123.106 45.0333 122.913C45.3706 122.73 45.7272 122.615 46.0935 122.557C46.4501 122.509 46.7778 122.48 47.0573 122.48C47.3368 122.48 47.6645 122.509 48.0211 122.557C48.3873 122.615 48.7439 122.73 49.0812 122.913C49.4282 123.106 49.7462 123.376 50.0547 123.723C50.3534 124.08 50.5847 124.561 50.7389 125.178L55.0856 141.794C55.0856 141.833 55.0953 141.861 55.0953 141.881C55.1049 141.89 55.1146 141.91 55.1146 141.929ZM47.4813 126.007C47.4428 125.843 47.4042 125.737 47.3464 125.67C47.2982 125.612 47.2018 125.583 47.0573 125.583C46.9127 125.583 46.8163 125.612 46.7681 125.67C46.7103 125.737 46.6718 125.843 46.6332 126.007L44.7249 133.872H49.3896L47.4813 126.007Z"/>
    <path d="M68.2317 141.669C68.2317 141.861 68.1932 141.996 68.1161 142.064C68.0293 142.131 67.8944 142.189 67.7016 142.218C67.5089 142.276 67.2294 142.324 66.8631 142.363C66.5065 142.411 66.1114 142.449 65.6873 142.488C65.2633 142.526 64.8295 142.546 64.3862 142.565C63.9429 142.584 63.5477 142.594 63.1911 142.594C62.3333 142.594 61.5237 142.526 60.7816 142.382C60.0395 142.237 59.3938 141.967 58.8541 141.572C58.3047 141.177 57.871 140.618 57.5529 139.915C57.2349 139.211 57.071 138.295 57.071 137.158V123.222C57.071 123.077 57.1289 122.952 57.2349 122.846C57.3409 122.74 57.4662 122.692 57.6011 122.692H60.2226C60.3672 122.692 60.4925 122.74 60.5985 122.846C60.7045 122.952 60.7624 123.077 60.7624 123.222V137.158C60.7624 138.045 60.9069 138.642 61.2057 138.96C61.5045 139.279 62.0442 139.442 62.8249 139.442H67.7016C67.8462 139.442 67.9619 139.491 68.0679 139.597C68.1739 139.703 68.2317 139.828 68.2317 139.972V141.669Z"/>
    <path d="M74.4289 141.852C74.4289 141.996 74.3807 142.112 74.2747 142.218C74.1687 142.324 74.0434 142.382 73.8988 142.382H71.2773C71.1327 142.382 71.0171 142.324 70.9111 142.218C70.805 142.112 70.7472 141.996 70.7472 141.852V123.193C70.7472 123.058 70.805 122.933 70.9111 122.836C71.0171 122.74 71.1327 122.692 71.2773 122.692H73.8988C74.0434 122.692 74.1687 122.74 74.2747 122.836C74.3807 122.933 74.4289 123.058 74.4289 123.193V141.852Z"/>
   <path d="M93.03 141.929C93.03 142.074 92.9915 142.18 92.9047 142.257C92.818 142.343 92.7023 142.382 92.5578 142.382H89.7435C89.6278 142.382 89.5218 142.334 89.4351 142.247C89.3387 142.16 89.2809 142.054 89.2423 141.929L88.0279 136.898H81.9272L80.7128 141.929C80.6742 142.054 80.6164 142.16 80.5297 142.247C80.4333 142.334 80.3273 142.382 80.2116 142.382H77.3974C77.2624 142.382 77.1468 142.343 77.0504 142.257C76.9636 142.18 76.9251 142.074 76.9251 141.929C76.9251 141.91 76.9251 141.89 76.9347 141.881C76.9444 141.861 76.9444 141.833 76.9444 141.794L81.2911 125.178C81.4549 124.561 81.6862 124.08 81.985 123.723C82.2838 123.376 82.6018 123.106 82.9488 122.913C83.2957 122.73 83.6523 122.615 84.0089 122.557C84.3752 122.509 84.6932 122.48 84.9824 122.48C85.2619 122.48 85.5799 122.509 85.9462 122.557C86.3124 122.615 86.6594 122.73 87.0063 122.913C87.3533 123.106 87.6713 123.376 87.9701 123.723C88.2689 124.08 88.5002 124.561 88.664 125.178L93.0107 141.794C93.0107 141.833 93.0107 141.861 93.0204 141.881C93.03 141.89 93.03 141.91 93.03 141.929ZM85.4064 126.007C85.3679 125.843 85.3197 125.737 85.2715 125.67C85.2137 125.612 85.1173 125.583 84.9824 125.583C84.8378 125.583 84.7414 125.612 84.6836 125.67C84.6354 125.737 84.5872 125.843 84.5583 126.007L82.65 133.872H87.3147L85.4064 126.007Z"/>
    <path d="M110.417 141.322C110.417 141.621 110.32 141.871 110.118 142.074C109.906 142.276 109.655 142.382 109.357 142.382H106.677C106.369 142.382 106.07 142.343 105.791 142.257C105.521 142.18 105.28 141.9 105.068 141.428L99.179 128.523C99.1115 128.378 99.0344 128.311 98.9477 128.311C98.8513 128.311 98.8127 128.378 98.8127 128.523V141.852C98.8127 141.996 98.7646 142.112 98.6682 142.218C98.5718 142.324 98.4465 142.382 98.3116 142.382H96.0563C95.9117 142.382 95.7864 142.324 95.6804 142.218C95.5744 142.112 95.5262 141.996 95.5262 141.852V123.752C95.5262 123.453 95.6226 123.203 95.8346 123C96.037 122.798 96.2876 122.692 96.5864 122.692H99.4488C99.7283 122.692 99.9597 122.74 100.123 122.846C100.287 122.952 100.451 123.183 100.615 123.54L106.783 137.158C106.841 137.303 106.909 137.37 106.995 137.37C107.092 137.37 107.13 137.293 107.13 137.129V123.193C107.13 122.856 107.304 122.692 107.631 122.692H109.916C110.253 122.692 110.417 122.856 110.417 123.193V141.322Z"/>
    <path d="M126.107 141.563C126.107 141.755 126.049 141.89 125.943 141.967C125.837 142.054 125.702 142.112 125.519 142.17C125.413 142.208 125.24 142.247 124.98 142.286C124.719 142.334 124.411 142.372 124.035 142.42C123.669 142.469 123.254 142.507 122.792 142.536C122.339 142.575 121.847 142.594 121.336 142.594C120.546 142.594 119.698 142.478 118.821 142.247C117.934 142.016 117.134 141.601 116.402 140.994C115.669 140.377 115.072 139.558 114.59 138.507C114.108 137.467 113.867 136.127 113.867 134.488V130.585C113.867 128.927 114.108 127.568 114.59 126.518C115.072 125.467 115.669 124.639 116.402 124.041C117.134 123.443 117.934 123.029 118.821 122.807C119.698 122.586 120.546 122.48 121.336 122.48C121.847 122.48 122.339 122.499 122.792 122.528C123.254 122.566 123.669 122.605 124.035 122.653C124.411 122.692 124.719 122.74 124.98 122.798C125.24 122.846 125.413 122.884 125.519 122.904C125.702 122.952 125.837 123.019 125.943 123.106C126.049 123.183 126.107 123.318 126.107 123.511V125.284C126.107 125.448 126.069 125.583 125.992 125.689C125.905 125.795 125.77 125.843 125.577 125.843H125.519C125.298 125.824 125.018 125.805 124.69 125.776C124.363 125.757 124.016 125.728 123.64 125.708C123.274 125.699 122.888 125.679 122.503 125.66C122.117 125.641 121.741 125.631 121.385 125.631C120.826 125.631 120.305 125.718 119.843 125.882C119.37 126.055 118.966 126.325 118.638 126.711C118.301 127.087 118.031 127.597 117.838 128.233C117.645 128.87 117.549 129.65 117.549 130.585V134.488C117.549 135.404 117.645 136.175 117.838 136.811C118.031 137.447 118.301 137.968 118.638 138.353C118.966 138.739 119.37 139.018 119.843 139.192C120.305 139.356 120.826 139.442 121.385 139.442C121.741 139.442 122.117 139.433 122.503 139.413C122.888 139.394 123.274 139.375 123.64 139.356C124.016 139.346 124.363 139.317 124.69 139.298C125.018 139.269 125.298 139.25 125.519 139.23H125.577C125.77 139.23 125.905 139.279 125.992 139.385C126.069 139.491 126.107 139.625 126.107 139.78V141.563Z"/>
    <path d="M141.027 141.669C141.027 141.861 140.988 141.996 140.911 142.064C140.824 142.131 140.689 142.189 140.497 142.218C140.285 142.257 140.053 142.295 139.793 142.343C139.533 142.382 139.215 142.42 138.839 142.459C138.463 142.498 138 142.526 137.461 142.555C136.921 142.584 136.256 142.594 135.456 142.594C134.598 142.594 133.789 142.526 133.047 142.382C132.304 142.237 131.649 141.967 131.1 141.572C130.55 141.177 130.117 140.618 129.799 139.915C129.471 139.211 129.317 138.295 129.317 137.158V127.915C129.317 126.778 129.471 125.863 129.799 125.159C130.117 124.446 130.55 123.896 131.1 123.501C131.649 123.106 132.304 122.836 133.047 122.692C133.789 122.547 134.598 122.48 135.456 122.48C136.256 122.48 136.921 122.489 137.461 122.518C138 122.547 138.463 122.576 138.839 122.615C139.215 122.644 139.533 122.692 139.793 122.73C140.053 122.778 140.285 122.817 140.497 122.846C140.689 122.884 140.824 122.942 140.911 123.01C140.988 123.077 141.027 123.212 141.027 123.405V125.101C141.027 125.246 140.969 125.371 140.863 125.477C140.757 125.583 140.641 125.631 140.497 125.631H135.09C134.309 125.631 133.769 125.795 133.461 126.113C133.153 126.431 132.998 127.029 132.998 127.915V130.778H140.179C140.323 130.778 140.439 130.826 140.545 130.932C140.651 131.038 140.709 131.163 140.709 131.308V133.216C140.709 133.351 140.651 133.477 140.545 133.583C140.439 133.689 140.323 133.746 140.179 133.746H132.998V137.158C132.998 138.045 133.153 138.642 133.461 138.96C133.769 139.279 134.309 139.442 135.09 139.442H140.497C140.641 139.442 140.757 139.491 140.863 139.597C140.969 139.703 141.027 139.828 141.027 139.972V141.669Z"/>
      <path d="M48.8499 151.23C48.8499 151.972 48.715 152.598 48.4548 153.099C48.1849 153.61 47.8283 154.015 47.385 154.333C46.932 154.641 46.4212 154.853 45.8333 154.988C45.2454 155.114 44.6285 155.181 43.9732 155.181C43.7418 155.181 43.4816 155.171 43.1925 155.152C42.8937 155.143 42.6528 155.123 42.46 155.114V159.528C42.46 159.614 42.4311 159.692 42.3733 159.759C42.3058 159.827 42.2287 159.865 42.142 159.865H40.4553C40.3589 159.865 40.2818 159.827 40.2144 159.759C40.1469 159.692 40.1084 159.614 40.1084 159.528V147.895C40.1084 147.731 40.1565 147.606 40.2529 147.538C40.3493 147.461 40.4842 147.413 40.6577 147.394C41.0914 147.326 41.6022 147.268 42.1805 147.23C42.7588 147.191 43.3563 147.172 43.9732 147.172C44.6285 147.172 45.2454 147.23 45.8333 147.355C46.4212 147.48 46.9416 147.692 47.385 148.001C47.8283 148.3 48.1849 148.704 48.4548 149.206C48.715 149.707 48.8499 150.333 48.8499 151.075V151.23ZM46.4983 151.066C46.4983 150.352 46.2862 149.851 45.8622 149.553C45.4477 149.244 44.8116 149.1 43.9635 149.1C43.8768 149.1 43.7611 149.1 43.6165 149.109C43.4816 149.109 43.337 149.119 43.1925 149.128C43.0383 149.128 42.9033 149.138 42.7781 149.138C42.6431 149.148 42.5371 149.157 42.46 149.167V153.205C42.5275 153.205 42.6335 153.205 42.7781 153.215C42.913 153.215 43.0576 153.225 43.2118 153.234C43.366 153.234 43.5105 153.244 43.6551 153.244C43.79 153.253 43.896 153.253 43.9635 153.253C44.8791 153.253 45.5249 153.09 45.92 152.743C46.3055 152.405 46.4983 151.895 46.4983 151.22V151.066Z"/>
      <path d="M59.8178 159.663C59.8178 159.798 59.7504 159.865 59.6154 159.865H57.5529C57.4662 159.865 57.3891 159.827 57.3505 159.759C57.3024 159.692 57.2542 159.614 57.2156 159.528L54.7772 155.027H54.5459C54.3146 155.027 54.064 155.017 53.7652 155.008C53.4761 154.988 53.2352 154.969 53.0424 154.959V159.528C53.0424 159.614 53.0039 159.692 52.946 159.759C52.8882 159.827 52.8111 159.865 52.7147 159.865H51.0281C50.9413 159.865 50.8642 159.827 50.7968 159.759C50.7293 159.692 50.6908 159.614 50.6908 159.528V147.895C50.6908 147.731 50.7389 147.606 50.8353 147.538C50.9317 147.461 51.0666 147.413 51.2305 147.394C51.6738 147.326 52.1846 147.268 52.7533 147.23C53.3315 147.191 53.9291 147.172 54.5556 147.172C55.2013 147.172 55.8278 147.239 56.4157 147.365C57.0036 147.5 57.5144 147.712 57.9577 148.001C58.4107 148.29 58.7673 148.685 59.0275 149.177C59.2974 149.668 59.4227 150.266 59.4227 150.989V151.143C59.4227 152.049 59.2203 152.772 58.8059 153.34C58.3914 153.899 57.8324 154.323 57.1289 154.593L59.7793 159.528C59.8082 159.557 59.8178 159.605 59.8178 159.663ZM57.0807 150.989C57.0807 150.352 56.8686 149.89 56.4446 149.61C56.0205 149.321 55.3844 149.186 54.5459 149.186C54.4495 149.186 54.3339 149.186 54.199 149.196C54.0544 149.196 53.9098 149.206 53.7652 149.206C53.6207 149.215 53.4857 149.215 53.3508 149.225C53.2255 149.234 53.1195 149.244 53.0424 149.254V153.051C53.1099 153.051 53.2159 153.051 53.3508 153.061C53.4954 153.07 53.64 153.07 53.7942 153.08C53.9484 153.08 54.0929 153.09 54.2279 153.099C54.3724 153.099 54.4785 153.099 54.5459 153.099C55.423 153.099 56.0687 152.964 56.4735 152.685C56.8783 152.396 57.0807 151.885 57.0807 151.143V150.989Z"/>
    <path d="M70.6605 154.728C70.6605 155.663 70.5448 156.463 70.3039 157.128C70.0533 157.793 69.7256 158.333 69.3015 158.757C68.8678 159.181 68.3667 159.489 67.7787 159.692C67.1908 159.894 66.5547 160 65.8512 160C65.1572 160 64.5211 159.894 63.9332 159.692C63.3453 159.489 62.8441 159.181 62.4104 158.757C61.9864 158.333 61.6587 157.793 61.4081 157.128C61.1671 156.463 61.0515 155.663 61.0515 154.728V152.444C61.0515 151.519 61.1671 150.719 61.4081 150.054C61.6587 149.379 61.9864 148.839 62.4104 148.415C62.8441 147.991 63.3453 147.683 63.9332 147.48C64.5211 147.278 65.1572 147.172 65.8512 147.172C66.5547 147.172 67.1908 147.278 67.7787 147.48C68.3667 147.683 68.8678 147.991 69.3015 148.415C69.7256 148.839 70.0533 149.379 70.3039 150.054C70.5448 150.719 70.6605 151.519 70.6605 152.444V154.728ZM68.3185 152.444C68.3185 151.316 68.1161 150.497 67.7113 149.986C67.3161 149.475 66.6897 149.215 65.8512 149.215C65.0223 149.215 64.3958 149.475 64.0007 149.986C63.5959 150.497 63.3935 151.316 63.3935 152.444V154.728C63.3935 155.856 63.5959 156.675 64.0007 157.186C64.3958 157.697 65.0223 157.957 65.8512 157.957C66.6897 157.957 67.3161 157.697 67.7113 157.186C68.1161 156.675 68.3185 155.856 68.3185 154.728V152.444Z"/>
    <path d="M81.9657 154.824C81.9657 156.501 81.5127 157.783 80.5875 158.67C79.6719 159.557 78.3611 160 76.6552 160C76.3468 160 76.0288 159.99 75.6914 159.981C75.3638 159.971 75.0361 159.952 74.7277 159.933C74.4192 159.904 74.1397 159.884 73.8892 159.865C73.6289 159.836 73.4362 159.817 73.3205 159.798C73.1663 159.769 73.0603 159.72 72.9832 159.643C72.9157 159.566 72.8772 159.441 72.8772 159.268V147.895C72.8772 147.731 72.9157 147.606 72.9832 147.529C73.0603 147.451 73.1663 147.394 73.3205 147.374C73.4362 147.355 73.6289 147.326 73.8892 147.307C74.1397 147.288 74.4192 147.259 74.7277 147.239C75.0361 147.22 75.3638 147.201 75.6914 147.191C76.0288 147.182 76.3468 147.172 76.6552 147.172C78.3611 147.172 79.6719 147.615 80.5875 148.502C81.5127 149.379 81.9657 150.661 81.9657 152.348V154.824ZM79.6237 152.348C79.6237 151.721 79.5466 151.191 79.3924 150.786C79.2382 150.372 79.0262 150.044 78.7659 149.803C78.4961 149.562 78.1877 149.389 77.8214 149.292C77.4552 149.196 77.06 149.148 76.6456 149.148C76.3275 149.148 76.0577 149.157 75.836 149.167C75.6047 149.177 75.4023 149.186 75.2288 149.196V157.986C75.4023 157.995 75.6047 158.005 75.836 158.024C76.0577 158.034 76.3275 158.034 76.6456 158.034C77.06 158.034 77.4552 157.986 77.8214 157.889C78.1877 157.803 78.4961 157.629 78.7659 157.388C79.0262 157.138 79.2382 156.819 79.3924 156.405C79.5466 155.991 79.6237 155.47 79.6237 154.834V152.348Z"/>
    <path d="M93.3577 155.22C93.3577 156.116 93.242 156.868 93.0107 157.475C92.7794 158.092 92.4614 158.574 92.0469 158.949C91.6325 159.325 91.141 159.586 90.5723 159.749C90.0037 159.913 89.3869 160 88.7122 160C88.0376 160 87.4111 159.913 86.8425 159.749C86.2738 159.586 85.7823 159.325 85.3679 158.949C84.9631 158.574 84.6451 158.092 84.4137 157.475C84.1824 156.868 84.0668 156.116 84.0668 155.22V147.625C84.0668 147.538 84.0957 147.461 84.1632 147.403C84.2306 147.336 84.3077 147.307 84.4041 147.307H86.0715C86.1678 147.307 86.2449 147.336 86.3124 147.403C86.3799 147.461 86.4088 147.538 86.4088 147.625V155.229C86.4088 155.711 86.4473 156.135 86.5148 156.492C86.5823 156.839 86.6979 157.138 86.881 157.378C87.0545 157.619 87.2858 157.793 87.575 157.899C87.8737 158.015 88.2496 158.072 88.7122 158.072C89.1556 158.072 89.5315 158.015 89.8302 157.899C90.129 157.793 90.37 157.619 90.5434 157.378C90.7169 157.138 90.8422 156.839 90.9097 156.492C90.9771 156.135 91.0061 155.711 91.0061 155.229V147.625C91.0061 147.538 91.0446 147.461 91.1121 147.403C91.1795 147.336 91.2566 147.307 91.3434 147.307H93.0204C93.1071 147.307 93.1842 147.336 93.2517 147.403C93.3191 147.461 93.3577 147.538 93.3577 147.625V155.22Z"/>
    <path d="M103.275 159.335C103.275 159.46 103.246 159.547 103.179 159.605C103.111 159.653 103.015 159.692 102.899 159.73C102.832 159.749 102.716 159.778 102.562 159.807C102.398 159.836 102.196 159.855 101.955 159.884C101.723 159.913 101.454 159.942 101.164 159.961C100.875 159.99 100.557 160 100.23 160C99.7283 160 99.1886 159.923 98.6296 159.778C98.061 159.634 97.5502 159.364 97.0876 158.978C96.6249 158.583 96.2394 158.063 95.931 157.398C95.6226 156.733 95.4684 155.875 95.4684 154.824V152.348C95.4684 151.287 95.6226 150.42 95.931 149.745C96.2394 149.08 96.6249 148.55 97.0876 148.165C97.5502 147.789 98.061 147.529 98.6296 147.384C99.1886 147.239 99.7283 147.172 100.23 147.172C100.557 147.172 100.875 147.182 101.164 147.211C101.454 147.23 101.723 147.259 101.955 147.278C102.196 147.307 102.398 147.345 102.562 147.374C102.716 147.413 102.832 147.432 102.899 147.442C103.015 147.48 103.111 147.519 103.179 147.567C103.246 147.615 103.275 147.712 103.275 147.827V148.965C103.275 149.061 103.246 149.148 103.198 149.215C103.15 149.283 103.063 149.321 102.938 149.321H102.899C102.755 149.312 102.581 149.292 102.369 149.273C102.167 149.263 101.945 149.244 101.704 149.234C101.463 149.225 101.222 149.215 100.981 149.196C100.731 149.186 100.49 149.186 100.268 149.186C99.9115 149.186 99.5741 149.234 99.2754 149.34C98.9766 149.447 98.726 149.63 98.514 149.871C98.2923 150.112 98.1285 150.43 98.0032 150.834C97.8779 151.249 97.82 151.75 97.82 152.348V154.824C97.82 155.412 97.8779 155.904 98.0032 156.318C98.1285 156.723 98.2923 157.051 98.514 157.292C98.726 157.542 98.9766 157.716 99.2754 157.822C99.5741 157.937 99.9115 157.986 100.268 157.986C100.49 157.986 100.731 157.976 100.981 157.966C101.222 157.957 101.463 157.947 101.704 157.937C101.945 157.928 102.167 157.909 102.369 157.889C102.581 157.88 102.755 157.86 102.899 157.851H102.938C103.063 157.851 103.15 157.889 103.198 157.957C103.246 158.024 103.275 158.101 103.275 158.207V159.335Z"/>
    <path d="M113.414 148.965C113.414 149.051 113.376 149.128 113.308 149.186C113.241 149.244 113.164 149.263 113.077 149.263H110.118V159.528C110.118 159.614 110.089 159.692 110.022 159.759C109.954 159.827 109.867 159.865 109.781 159.865H108.104C108.017 159.865 107.94 159.827 107.872 159.759C107.805 159.692 107.766 159.614 107.766 159.528V149.263H104.817C104.721 149.263 104.644 149.244 104.576 149.186C104.509 149.128 104.48 149.051 104.48 148.965V147.625C104.48 147.538 104.509 147.461 104.576 147.403C104.644 147.336 104.721 147.307 104.817 147.307H113.077C113.164 147.307 113.241 147.336 113.308 147.403C113.376 147.461 113.414 147.538 113.414 147.625V148.965Z"/>
    <path d="M117.452 159.528C117.452 159.614 117.414 159.692 117.346 159.759C117.279 159.827 117.202 159.865 117.115 159.865H115.438C115.351 159.865 115.274 159.827 115.207 159.759C115.139 159.692 115.101 159.614 115.101 159.528V147.625C115.101 147.538 115.139 147.461 115.207 147.403C115.274 147.336 115.351 147.307 115.438 147.307H117.115C117.202 147.307 117.279 147.336 117.346 147.403C117.414 147.461 117.452 147.538 117.452 147.625V159.528Z"/>
    <path d="M129.259 154.728C129.259 155.663 129.143 156.463 128.902 157.128C128.661 157.793 128.324 158.333 127.9 158.757C127.466 159.181 126.965 159.489 126.377 159.692C125.789 159.894 125.153 160 124.459 160C123.756 160 123.119 159.894 122.532 159.692C121.953 159.489 121.443 159.181 121.018 158.757C120.585 158.333 120.257 157.793 120.016 157.128C119.775 156.463 119.65 155.663 119.65 154.728V152.444C119.65 151.519 119.775 150.719 120.016 150.054C120.257 149.379 120.585 148.839 121.018 148.415C121.443 147.991 121.953 147.683 122.532 147.48C123.119 147.278 123.756 147.172 124.459 147.172C125.153 147.172 125.789 147.278 126.377 147.48C126.965 147.683 127.466 147.991 127.9 148.415C128.324 148.839 128.661 149.379 128.902 150.054C129.143 150.719 129.259 151.519 129.259 152.444V154.728ZM126.917 152.444C126.917 151.316 126.714 150.497 126.31 149.986C125.914 149.475 125.288 149.215 124.459 149.215C123.621 149.215 123.004 149.475 122.599 149.986C122.194 150.497 122.002 151.316 122.002 152.444V154.728C122.002 155.856 122.194 156.675 122.599 157.186C123.004 157.697 123.621 157.957 124.459 157.957C125.288 157.957 125.914 157.697 126.31 157.186C126.714 156.675 126.917 155.856 126.917 154.728V152.444Z"/>
    <path d="M140.969 159.19C140.969 159.374 140.911 159.537 140.776 159.672C140.651 159.798 140.487 159.865 140.294 159.865H138.588C138.386 159.865 138.203 159.836 138.029 159.788C137.846 159.74 137.692 159.557 137.557 159.258L133.808 151.027C133.76 150.931 133.712 150.892 133.654 150.892C133.596 150.892 133.577 150.931 133.577 151.027V159.528C133.577 159.614 133.538 159.692 133.48 159.759C133.413 159.827 133.345 159.865 133.249 159.865H131.813C131.726 159.865 131.649 159.827 131.582 159.759C131.514 159.692 131.476 159.614 131.476 159.528V147.982C131.476 147.789 131.543 147.635 131.668 147.5C131.803 147.374 131.957 147.307 132.15 147.307H133.981C134.155 147.307 134.299 147.345 134.405 147.413C134.511 147.48 134.618 147.625 134.724 147.847L138.656 156.53C138.694 156.627 138.733 156.665 138.791 156.665C138.849 156.665 138.877 156.617 138.877 156.521V147.625C138.877 147.413 138.983 147.307 139.196 147.307H140.651C140.863 147.307 140.969 147.413 140.969 147.625V159.19Z"/>
    <path fill-rule="evenodd" clip-rule="evenodd" d="M89.9459 29.8788C94.5721 29.8788 98.9862 30.7848 103.015 32.4329V64.0162C103.015 71.1772 97.2129 76.9792 90.0519 76.9792C87.0063 76.9792 84.2113 75.9287 81.9946 74.1746V85.6533C84.5005 86.5882 87.2184 87.099 90.0519 87.099C104.133 87.099 113.183 75.9769 113.183 62.4935V26.573C106.427 22.4095 98.4658 20 89.9459 20C65.4367 20 45.573 39.8637 45.573 64.3728C45.573 78.3671 52.0497 90.8481 62.1695 98.9825V84.8437C57.9481 79.1188 55.4422 72.035 55.4422 64.3728C55.4422 45.3187 70.8918 29.8788 89.9459 29.8788Z"/>
    <path fill-rule="evenodd" clip-rule="evenodd" d="M90.0808 98.8958C85.4546 98.8958 81.0405 97.9898 77.0118 96.3321V64.7487C77.0118 57.5974 82.8138 51.7858 89.9748 51.7858C93.0204 51.7858 95.8154 52.8363 98.0321 54.6V43.1213C95.5262 42.1864 92.8083 41.6756 89.9748 41.6756C75.8938 41.6756 66.8342 52.7881 66.8342 66.2811V102.202C73.6 106.365 81.5609 108.775 90.0808 108.775C114.59 108.775 134.454 88.9013 134.454 64.4018C134.454 50.4075 127.977 37.9265 117.848 29.7921V43.9309C122.079 49.6558 124.575 56.7396 124.575 64.4018C124.575 83.4559 109.135 98.8958 90.0808 98.8958Z"/>
  </symbol>
  <symbol  viewBox="0 0 24.0034 24" fill="none" xmlns="http://www.w3.org/2000/svg" xmlns:xlink="http://www.w3.org/1999/xlink" id="flask">
	  <path id="Vector" d="M19.33 9.37L16.66 12L7.24 12L14.65 4.64C14.93 4.35 14.93 3.89 14.65 3.6C14.37 3.28 13.85 3.28 13.57 3.6L1.52 15.6C-0.26 17.43 -0.59 20.39 1.1 22.35C2.08 23.43 3.4 24 4.76 24C6.02 24 7.24 23.53 8.18 22.59L20.41 10.4C20.69 10.12 20.69 9.65 20.41 9.37C20.13 9.04 19.62 9.04 19.33 9.37ZM7.15 21.56C6.49 22.17 5.65 22.5 4.76 22.5C3.77 22.5 2.88 22.07 2.22 21.37C1.1 20.06 1.29 18 2.6 16.68L5.74 13.5L15.16 13.5L7.15 21.56ZM23.79 8.48L15.54 0.23C15.4 0.09 15.21 0 15.02 0C14.79 0 14.6 0.09 14.46 0.23C14.18 0.51 14.18 1.03 14.46 1.31L22.71 9.56C22.85 9.7 23.04 9.75 23.27 9.75C23.46 9.75 23.65 9.7 23.79 9.56C24.07 9.28 24.07 8.76 23.79 8.48Z" fill="#5C8EE6" fill-opacity="1.000000" fill-rule="nonzero"/>
  </symbol>
  <symbol viewBox="0 0 20 24" fill="none" xmlns="http://www.w3.org/2000/svg" id="car-wash">
    <path d="M9.75 5.95312C10.9688 5.95312 12 4.92188 12 3.70312C12 2.71875 10.8281 0.9375 10.3594 0.234375C10.2188 0.09375 9.98438 0 9.75 0C9.46875 0 9.23438 0.09375 9.09375 0.28125C8.625 0.984375 7.5 2.76562 7.5 3.70312C7.5 4.96875 8.48438 5.95312 9.75 5.95312ZM9.75 2.10938C10.1719 2.85938 10.4531 3.51562 10.5 3.70312C10.5 4.125 10.125 4.45312 9.75 4.45312C9.32812 4.45312 9 4.125 9 3.70312C9 3.46875 9.28125 2.8125 9.75 2.10938ZM16.5 5.95312C17.7188 5.95312 18.75 4.96875 18.75 3.70312C18.75 2.76562 17.5781 0.984375 17.1094 0.28125C16.9688 0.09375 16.7344 0 16.5 0C16.2188 0 15.9844 0.09375 15.8438 0.28125C15.375 0.984375 14.25 2.76562 14.25 3.70312C14.25 4.96875 15.2344 5.95312 16.5 5.95312ZM16.5 2.10938C16.9219 2.85938 17.2031 3.51562 17.25 3.70312C17.25 4.125 16.875 4.45312 16.5 4.45312C16.0781 4.45312 15.75 4.125 15.75 3.70312C15.75 3.46875 16.0312 2.8125 16.5 2.10938ZM3 5.95312C4.21875 5.95312 5.25 4.96875 5.25 3.70312C5.25 2.76562 4.07812 0.984375 3.60938 0.28125C3.46875 0.09375 3.23438 0 3 0C2.71875 0 2.48438 0.09375 2.34375 0.28125C1.875 0.984375 0.75 2.76562 0.75 3.70312C0.75 4.96875 1.73438 5.95312 3 5.95312ZM3 2.10938C3.42188 2.8125 3.70312 3.46875 3.75 3.70312C3.75 4.125 3.375 4.45312 3 4.45312C2.57812 4.45312 2.25 4.125 2.25 3.70312C2.25 3.46875 2.53125 2.8125 3 2.10938ZM15 16.4531C14.3438 16.4531 13.875 16.9688 13.875 17.5781C13.875 18.2344 14.3438 18.7031 15 18.7031C15.6094 18.7031 16.125 18.2344 16.125 17.5781C16.125 16.9688 15.6094 16.4531 15 16.4531ZM17.3906 13.7812L16.6406 10.5469C16.3125 9.1875 15.1406 8.20312 13.7344 8.20312H5.57812C4.21875 8.20312 3 9.1875 2.67188 10.5469L1.92188 13.875C0.796875 14.4375 0 15.6094 0 16.9688V19.5469C0 20.4844 0.609375 21.3281 1.5 21.6094V23.2031C1.5 23.625 1.82812 23.9531 2.25 23.9531C2.625 23.9531 3 23.625 3 23.2031V21.7031H16.5V23.2031C16.5 23.625 16.8281 23.9531 17.25 23.9531C17.625 23.9531 18 23.625 18 23.2031V21.6094C18.8906 21.3281 19.4531 20.4844 19.5 19.5469V16.9688C19.5 15.6094 18.6562 14.3438 17.3906 13.7812ZM4.125 10.875C4.3125 10.2188 4.92188 9.75 5.625 9.75H13.7344C14.4375 9.75 15.0469 10.2188 15.1875 10.875L15.7969 13.5H3.5625L4.125 10.875ZM18 19.5469C18 19.9219 17.6719 20.25 17.2969 20.25H2.15625C1.78125 20.2031 1.5 19.9219 1.5 19.5469V16.9688C1.5 15.8906 2.39062 15 3.46875 15H15.9844C17.0625 15 18 15.8906 18 16.9688V19.5469ZM4.5 16.4531C3.84375 16.4531 3.375 16.9688 3.375 17.5781C3.375 18.2344 3.84375 18.7031 4.5 18.7031C5.10938 18.7031 5.625 18.2344 5.625 17.5781C5.625 16.9688 5.10938 16.4531 4.5 16.4531Z" fill="#5C8EE6"/>
  </symbol>

  <symbol viewBox="0 0 20 24" fill="none" xmlns="http://www.w3.org/2000/svg" id="food">
    <path d="M9.27428 0.609375C9.18053 0.234375 8.80553 -0.046875 8.38366 0.046875C7.96178 0.140625 7.72741 0.515625 7.82116 0.9375L8.89928 6.32812C9.32116 8.57812 8.52428 10.2188 6.50866 11.1094L6.03991 11.2969L6.46178 21.8906C6.46178 22.0781 6.41491 22.2656 6.27428 22.3594C6.22741 22.4531 6.13366 22.5 5.99303 22.5H4.58678C4.44616 22.5 4.35241 22.4531 4.25866 22.3594C4.16491 22.2656 4.07116 22.0781 4.07116 21.9375L4.49303 11.2969L4.02428 11.1094C2.00866 10.1719 1.21178 8.57812 1.63366 6.375L2.75866 0.9375C2.80553 0.515625 2.57116 0.140625 2.14928 0.046875C1.77428 -0.046875 1.35241 0.234375 1.25866 0.609375L0.133657 6.09375C-0.381968 8.8125 0.602407 10.9688 2.94616 12.2344L2.57116 21.8906C2.57116 22.4062 2.75866 22.9688 3.13366 23.3906C3.50866 23.8125 4.02428 24 4.58678 24H5.99303C6.55553 24 7.02428 23.8125 7.39928 23.3906C7.77428 22.9688 7.96178 22.4062 7.96178 21.8438L7.58678 12.2344C9.88366 11.0156 10.9149 8.76562 10.3993 6.04688L9.27428 0.609375ZM17.8524 0C16.3524 0 13.8212 2.0625 12.6962 4.73438C11.8993 6.60938 11.1024 10.3125 14.7587 14.2969L14.4305 21.75C14.3837 22.4062 14.618 23.0156 15.0399 23.4375C15.4149 23.8125 15.8837 24 16.3524 24H17.5712C18.6493 24 19.5399 23.0625 19.5399 21.8438V1.82812C19.5399 0.84375 18.7899 0 17.8524 0ZM18.0399 21.8438C18.0399 22.2656 17.7587 22.5 17.5712 22.5H16.3524C16.2587 22.5 16.1649 22.4531 16.118 22.4062C15.9774 22.2656 15.9305 22.0312 15.9305 21.8438L16.3055 13.7344L16.0712 13.5C12.9305 10.2188 13.2587 7.26562 14.0555 5.34375C15.1337 2.85938 17.243 1.5 17.8524 1.5C17.8993 1.5 18.0399 1.64062 18.0399 1.82812V21.8438ZM3.74303 8.25C3.74303 8.25 3.74303 8.25 3.78991 8.25C4.16491 8.25 4.49303 7.96875 4.49303 7.54688L4.86803 0.796875C4.91491 0.421875 4.58678 0.046875 4.16491 0.046875C3.78991 0 3.41491 0.328125 3.41491 0.75L3.03991 7.5C2.99303 7.875 3.32116 8.25 3.74303 8.25ZM6.78991 8.25C7.21178 8.25 7.53991 7.875 7.49303 7.5L7.11803 0.75C7.11803 0.328125 6.78991 0 6.36803 0.046875C5.94616 0.046875 5.61803 0.421875 5.66491 0.796875L6.03991 7.54688C6.03991 7.96875 6.36803 8.25 6.78991 8.25Z" fill="#5C8EE6"/>
  </symbol>

  <symbol viewBox="0 0 18 24" fill="none" xmlns="http://www.w3.org/2000/svg" id="dye">
    <path d="M16.5 0H1.5C0.65625 0 0 0.703125 0 1.5V15C0 16.6875 1.3125 18 3 18H6V21C6 22.6875 7.3125 24 9 24C10.6406 24 12 22.6875 12 21V18H15C16.6406 18 18 16.6875 18 15V1.5C18 0.703125 17.2969 0 16.5 0ZM16.5 15C16.5 15.8438 15.7969 16.5 15 16.5H10.5V21C10.5 21.8438 9.79688 22.5 9 22.5C8.15625 22.5 7.5 21.8438 7.5 21V16.5H3C2.15625 16.5 1.5 15.8438 1.5 15V13.5H16.5V15ZM16.5 12H1.5V1.5H16.5V12Z" fill="#5C8EE6"/>
  </symbol>

  <symbol viewBox="0 0 30 24" fill="none" xmlns="http://www.w3.org/2000/svg" id="cosmetic">
    <path d="M15 19.5C15.375 19.5 15.75 19.1719 15.75 18.75V17.25H17.25C17.625 17.25 18 16.9219 18 16.5C18 16.125 17.625 15.75 17.25 15.75H15.75V14.25C15.75 13.875 15.375 13.5 15 13.5C14.5781 13.5 14.25 13.875 14.25 14.25V15.75H12.75C12.3281 15.75 12 16.125 12 16.5C12 16.9219 12.3281 17.25 12.75 17.25H14.25V18.75C14.25 19.1719 14.5781 19.5 15 19.5ZM3.75 10.5C4.125 10.5 4.5 10.1719 4.5 9.75V7.5H6C6.375 7.5 6.75 7.17188 6.75 6.75C6.75 6.375 6.375 6 6 6H4.5V3.75C4.5 3.375 4.125 3 3.75 3C3.32812 3 3 3.375 3 3.75V6H0.75C0.328125 6 0 6.375 0 6.75C0 7.07812 0.328125 7.5 0.75 7.5H3V9.75C3 10.1719 3.32812 10.5 3.75 10.5ZM29.25 19.5H27V17.25C27 16.875 26.625 16.5 26.25 16.5C25.8281 16.5 25.5 16.875 25.5 17.25V19.5H23.25C22.8281 19.5 22.5 19.875 22.5 20.25C22.5 20.625 22.8281 21 23.25 21H25.5V23.25C25.5 23.6719 25.8281 24 26.25 24C26.625 24 27 23.6719 27 23.25V21H29.25C29.625 21 29.9531 20.6719 29.9531 20.2969C29.9531 19.9219 29.625 19.5 29.25 19.5ZM21.375 21.5625C20.8594 21.5625 20.0625 22.5 17.9531 22.5H13.2188C11.4375 22.5 9.79688 21.6562 8.76562 20.25L4.73438 14.9062C4.54688 14.6719 4.45312 14.4375 4.45312 14.1562C4.45312 13.5469 4.96875 13.125 5.53125 13.125C5.76562 13.125 6.14062 13.2188 6.42188 13.5938L8.01562 15.7031C8.29688 16.0781 8.76562 16.3125 9.1875 16.3125C9.375 16.3125 10.5 16.1719 10.5 15.0469C10.5 15.0469 10.5 15.0469 10.5 15V4.17188C10.5 3.60938 10.9219 3 11.625 3C12.2344 3 12.75 3.51562 12.75 4.125V11.25C12.75 11.3438 12.8438 12.0469 13.5 12.0469C13.875 12.0469 14.2031 11.6719 14.2031 11.2969V2.67188C14.2031 2.10938 14.625 1.5 15.3281 1.5C15.9375 1.5 16.4531 2.01562 16.4531 2.625V11.25C16.4531 11.3438 16.5469 12.0469 17.2031 12.0469C17.5781 12.0469 17.9531 11.6719 17.9531 11.2969V4.17188C17.9531 3.60938 18.375 3 19.0781 3C19.6875 3 20.2031 3.51562 20.2031 4.125V11.2031C20.2031 11.3438 20.2969 12 20.9531 12C21.3281 12 21.7031 11.6719 21.7031 11.2969V6.42188C21.7031 5.8125 22.125 5.25 22.8281 5.25C23.4375 5.25 23.9531 5.76562 23.9531 6.375V14.1094C23.9531 14.4844 24.2812 14.8594 24.7031 14.8594C25.0781 14.8594 25.5 14.4844 25.5 14.1094V6.46875C25.5 5.4375 24.7031 3.75 22.8281 3.75C22.4531 3.75 22.0781 3.84375 21.7031 3.98438C21.6562 2.625 20.4844 1.5 19.0781 1.5C18.6094 1.5 18.1875 1.64062 17.8125 1.82812C17.4844 0.796875 16.5 0 15.3281 0C14.1562 0 13.2188 0.796875 12.8438 1.875C12.4688 1.64062 12.0469 1.5 11.625 1.5C9.75 1.5 9 3.23438 9 4.26562V14.4375L7.54688 12.6094C7.07812 12 6.32812 11.625 5.53125 11.625C4.125 11.625 3 12.7031 3 14.1562C3 14.7188 3.14062 15.3281 3.51562 15.7969L7.59375 21.1406C8.85938 22.9219 10.9688 24 13.2188 24H18C19.5 24 22.125 23.2969 22.125 22.3125C22.125 22.0312 21.9375 21.5625 21.375 21.5625Z" fill="#5C8EE6"/>
  </symbol>

  <symbol viewBox="0 0 21 24" fill="none" xmlns="http://www.w3.org/2000/svg" id="car-cosmetic">
    <path d="M18.1406 13.8281L17.3906 10.5938C17.0625 9.23438 15.8906 8.25 14.4844 8.25H6.375C4.96875 8.25 3.75 9.23438 3.42188 10.5938L2.67188 13.9219C1.54688 14.4844 0.75 15.6562 0.75 17.0156V19.5938C0.75 20.5312 1.35938 21.375 2.25 21.6562V23.25C2.25 23.6719 2.57812 24 3 24C3.375 24 3.75 23.6719 3.75 23.25V21.75H17.25V23.25C17.25 23.6719 17.5781 24 18 24C18.375 24 18.75 23.6719 18.75 23.25V21.6562C19.6406 21.375 20.2031 20.5312 20.25 19.5938V17.0156C20.25 15.6562 19.4062 14.3906 18.1406 13.8281ZM4.875 10.9219C5.0625 10.2656 5.67188 9.75 6.375 9.75H14.4844C15.1875 9.75 15.7969 10.2656 15.9375 10.9219L16.5469 13.5H4.3125L4.875 10.9219ZM18.75 19.5938C18.75 19.9688 18.4219 20.25 18.0469 20.25H2.90625C2.53125 20.25 2.25 19.9688 2.25 19.5938V17.0156C2.25 15.9375 3.14062 15 4.21875 15H16.7344C17.8125 15 18.75 15.9375 18.75 17.0156V19.5938ZM15.75 16.5C15.0938 16.5 14.625 17.0156 14.625 17.625C14.625 18.2812 15.0938 18.75 15.75 18.75C16.3594 18.75 16.875 18.2812 16.875 17.625C16.875 17.0156 16.3594 16.5 15.75 16.5ZM5.25 16.5C4.59375 16.5 4.125 17.0156 4.125 17.625C4.125 18.2812 4.59375 18.75 5.25 18.75C5.85938 18.75 6.375 18.2812 6.375 17.625C6.375 17.0156 5.85938 16.5 5.25 16.5ZM3.75 7.5C4.96875 7.5 6.04688 6.9375 6.70312 6.04688H14.25C14.9062 6.9375 15.9844 7.5 17.25 7.5C19.3125 7.5 21 5.85938 21 3.75C21 1.6875 19.3125 0 17.25 0C15.9844 0 14.9062 0.609375 14.25 1.54688H6.70312C6.04688 0.609375 4.96875 0 3.75 0C1.64062 0 0 1.6875 0 3.75C0 5.85938 1.64062 7.5 3.75 7.5ZM1.59375 3C1.92188 2.15625 2.76562 1.5 3.75 1.5C4.40625 1.5 5.0625 1.875 5.53125 2.4375C5.8125 2.8125 6.23438 3.04688 6.70312 3.04688H14.25C14.7188 3.04688 15.1406 2.8125 15.4219 2.4375C15.8906 1.875 16.5469 1.5 17.25 1.5C18.1875 1.5 19.0312 2.15625 19.3594 3H17.25V4.5H19.3594C19.0312 5.39062 18.1875 6 17.25 6C16.5469 6 15.8906 5.67188 15.4219 5.10938C15.1406 4.73438 14.7188 4.54688 14.25 4.54688H6.70312C6.23438 4.54688 5.8125 4.73438 5.53125 5.10938C5.0625 5.67188 4.40625 6 3.75 6C2.76562 6 1.92188 5.39062 1.59375 4.5H3.75V3H1.59375Z" fill="#5C8EE6"/>
  </symbol>

  <symbol viewBox="0 0 30 24" fill="none" xmlns="http://www.w3.org/2000/svg" id="cloth">
    <path d="M29.8813 5.54898C29.6938 4.98648 29.3188 4.56461 28.8032 4.28336L20.5063 0.0646075C20.1782 -0.0760175 19.8032 0.0177325 19.5688 0.298983C18.8188 1.37711 16.9438 2.08023 14.9751 2.08023C13.0532 2.08023 11.1782 1.37711 10.4282 0.298983C10.1938 0.0177325 9.81882 -0.0760175 9.4907 0.0646075L1.19382 4.28336C0.678196 4.56461 0.303196 4.98648 0.115696 5.54898C-0.0718041 6.11148 -0.0249291 6.67398 0.209446 7.18961L2.50632 11.924C3.02195 12.9552 4.33445 13.3771 5.3657 12.9084L7.52195 11.9709V21.8146C7.52195 23.0334 8.45945 23.9709 9.6782 23.9709H20.3188C21.5376 23.9709 22.5219 23.0334 22.5219 21.8146L22.4751 11.9709L24.5844 12.8615C25.6626 13.3771 26.9751 12.9552 27.4907 11.8771L29.7876 7.18961C30.0219 6.67398 30.0688 6.11148 29.8813 5.54898ZM28.4282 6.53336L26.1782 11.2209C25.9907 11.549 25.5688 11.6896 25.2407 11.5021L22.0532 10.1427C21.8188 10.049 21.5376 10.0959 21.3501 10.2365C21.1157 10.3771 20.9751 10.6115 20.9751 10.8459L21.0219 21.8146C21.0219 22.1896 20.6938 22.4709 20.3188 22.4709H9.6782C9.3032 22.4709 9.02195 22.1896 9.02195 21.8146V10.8459C9.02195 10.6115 8.88132 10.3771 8.64695 10.2365C8.5532 10.1427 8.41257 10.0959 8.27195 10.0959C8.13132 10.0959 8.03757 10.1427 7.94382 10.1427L4.75632 11.5021C4.4282 11.6896 4.00632 11.549 3.8657 11.2209L1.56882 6.53336C1.47507 6.34586 1.47507 6.20523 1.52195 6.01773C1.56882 5.87711 1.70945 5.73648 1.89695 5.64273L9.63132 1.65836C10.8032 2.87711 12.8188 3.58023 15.0219 3.58023C17.2251 3.58023 19.1938 2.87711 20.3657 1.65836L28.1001 5.64273C28.2876 5.73648 28.4282 5.87711 28.4751 6.01773C28.5219 6.20523 28.5219 6.34586 28.4282 6.53336Z" fill="#5C8EE6"/>
  </symbol>

  <symbol viewBox="0 0 30 24" fill="none" xmlns="http://www.w3.org/2000/svg" id="boots">
    <path d="M15.7969 12.75C14.1562 12.75 12.2344 13.4062 10.875 14.3906C9.75 15.1875 8.8125 15.9844 6 15.9844H3C1.3125 15.9844 0 17.4375 0 19.2188C0 20.9531 1.3125 22.5 3 22.5H6L8.67188 23.2031C10.1719 23.6719 11.7188 24 13.7344 24C18.8906 24 24 21.4219 24 17.5781C24 14.3906 20.0156 12.75 15.7969 12.75ZM5.25 21H3C2.20312 21 1.5 20.1562 1.5 19.2188C1.5 18.2344 2.15625 17.4844 3 17.4844H5.25V21ZM9.04688 21.75L6.75 21.1875V17.4375C9.32812 17.2969 10.5 16.5 11.5781 15.75C15.8438 12.7031 22.5 14.8594 22.5 17.5781C22.5 20.4844 16.7812 24.0469 9.04688 21.75ZM19.7344 0C17.6719 0 16.1719 0.375 14.6719 0.84375L12 1.5H9C7.3125 1.5 6 3.04688 6 4.82812C6 6.65625 7.3125 8.0625 9 8.0625H12C14.8125 8.0625 15.75 8.85938 16.875 9.65625C18.2344 10.5938 20.1562 11.25 21.7969 11.25C26.0156 11.25 30 9.65625 30 6.46875C30 2.625 24.9844 0 19.7344 0ZM11.25 6.5625H9C8.15625 6.5625 7.5 5.8125 7.5 4.82812C7.5 3.89062 8.20312 3 9 3H11.25V6.5625ZM21.7969 9.75C20.4844 9.75 18.8906 9.1875 17.7656 8.39062C16.6406 7.64062 15.4688 6.75 12.75 6.5625V2.85938L15.0938 2.25C16.5 1.875 17.8594 1.5 19.7344 1.5C22.1719 1.5 28.5 2.71875 28.5 6.46875C28.5 8.625 25.125 9.75 21.7969 9.75Z" fill="#5C8EE6"/>
  </symbol>

  <symbol viewBox="0 0 21 22" fill="none" xmlns="http://www.w3.org/2000/svg" id="construction">
    <path d="M19.5 0H1.5C0.65625 0 0 0.703125 0 1.5V4.5C0 5.34375 0.65625 6 1.5 6V20.25C1.5 20.625 1.73438 20.9531 2.10938 21C2.57812 21.0938 3 20.7188 3 20.25V18H13.5V20.25C13.5 20.6719 13.8281 21 14.2031 21C14.5781 21 15 20.6719 15 20.25V18H18V20.25C18 20.625 18.2344 20.9531 18.6094 21C19.0781 21.0938 19.5 20.7188 19.5 20.25V6C20.2969 6 21 5.34375 21 4.5V1.5C21 0.703125 20.2969 0 19.5 0ZM6 10.5H3V6H6V10.5ZM3 16.5V12H9V16.5H3ZM18 16.5H10.5V12H18V16.5ZM18 10.5H7.5V6H18V10.5ZM19.5 4.5H1.5V1.5H19.5V4.5Z" fill="#5C8EE6"/>
  </symbol>

  <symbol viewBox="0 0 18 3" fill="none" xmlns="http://www.w3.org/2000/svg" id="other">
    <path d="M9 0C8.15625 0 7.5 0.703125 7.5 1.5C7.5 2.34375 8.15625 3 9 3C9.79688 3 10.5 2.34375 10.5 1.5C10.5 0.703125 9.79688 0 9 0ZM1.5 0C0.65625 0 0 0.703125 0 1.5C0 2.34375 0.65625 3 1.5 3C2.29688 3 3 2.34375 3 1.5C3 0.703125 2.29688 0 1.5 0ZM16.5 0C15.6562 0 15 0.703125 15 1.5C15 2.34375 15.6562 3 16.5 3C17.2969 3 18 2.34375 18 1.5C18 0.703125 17.2969 0 16.5 0Z" fill="#5C8EE6"/>
  </symbol>
  <symbol width="12" height="12" viewBox="0 0 12 12" fill="none" xmlns="http://www.w3.org/2000/svg" id="shield">
  <path d="M10.9222 1.94626L6.42 0.0703468C6.2793 0.0234489 6.13861 0 5.99792 0C5.83377 0 5.69308 0.0234489 5.55239 0.0703468L1.05019 1.94626C0.628108 2.13385 0.370169 2.53249 0.370169 2.97802C0.370169 7.64436 3.04335 10.8569 5.55239 11.9121C5.83377 12.0293 6.13861 12.0293 6.42 11.9121C8.43661 11.0679 11.6257 8.18368 11.6257 2.97802C11.6257 2.53249 11.3443 2.13385 10.9222 1.94626ZM9.16169 4.72512L5.50549 8.14349C5.3648 8.30763 5.10686 8.30763 4.96616 8.14349L2.95625 6.37141C2.81556 6.23072 2.81556 5.99623 2.95625 5.85554L3.24099 5.5708C3.38168 5.43011 3.61617 5.43011 3.75687 5.5708L5.30267 6.91226L8.41619 3.97962C8.55689 3.83893 8.79138 3.83893 8.93207 3.97962L9.16169 4.20924C9.30239 4.34994 9.30239 4.58443 9.16169 4.72512Z" fill="#828A99"/>
  </symbol>

</svg>